<?xml version="1.0" encoding="UTF-8"?> <svg xmlns="http://www.w3.org/2000/svg" viewBox="0 0 497.44 211.91"><path d="M61.08,97.82v-2h2.78q4.68,0,6.69-3,1.14-1.74,1.14-8V60.91H61.08v-4H71.69V37.07c0-4.61-.5-7.49-1.52-8.65Q68,26,63.86,26H61.08V24H91.13q17.15,0,25.36,3.89a32.08,32.08,0,0,1,13.56,12.46,37.27,37.27,0,0,1,5.33,20.06q0,15.63-10,26.51T94,97.82ZM82.2,92.38A56,56,0,0,0,93.79,93.9,27.5,27.5,0,0,0,114.7,85Q123,76.15,123,61T114.7,36.85Q106.36,28,93.36,28A46.31,46.31,0,0,0,82.2,29.61V56.88h21.39v4H82.2Z" style="fill:#bf997e"></path><path d="M205.07,26a7.59,7.59,0,0,0-6.7,3.65q-1.14,1.74-1.14,7.84V67.44q0,11.39-2.18,17.26a22.23,22.23,0,0,1-8.65,10.45q-6.48,4.41-17.59,4.41-21.56,0-27.21-15.46-1.74-4.78-1.74-18.18V37.07q0-6.53-1.91-8.93-1.63-2.12-6-2.12h-2.78V24H161v2H158.2c-3,0-5.22,1-6.53,2.89q-1.36,1.95-1.36,8.16V69.24q0,13,3.64,18.51,4.74,7.13,15.52,7.13a26.54,26.54,0,0,0,12.93-3.13,16.71,16.71,0,0,0,7.83-8.08q2.1-5,2.1-16.71V37.07q0-6.91-1.52-8.65c-1.42-1.6-3.52-2.4-6.32-2.4h-2.77V24h25a9.81,9.81,0,0,0,4.08-1c1.09-.51,1.43-1.11,1-1.8a11.69,11.69,0,0,1-2.94-2.61,4.45,4.45,0,0,1-.6-3.54,4.5,4.5,0,0,1,2.4-2.83,4.49,4.49,0,0,1,2.39-.71,5.34,5.34,0,0,1,4.9,2.94,6.34,6.34,0,0,1,.82,3.16,8.45,8.45,0,0,1-.44,2.56,7.46,7.46,0,0,1-4.57,4.62,18.92,18.92,0,0,1-7.07,1.2ZM180.79,0,164.73,18.78h-1.85L168.6,0Z" style="fill:#bf997e"></path><path d="M271,22.32l1.69,25.09H271q-3.37-11.26-9.64-16.22a23.47,23.47,0,0,0-15-5A24.39,24.39,0,0,0,233.06,30q-5.94,3.72-9.34,11.89t-3.4,20.3a43.15,43.15,0,0,0,3.21,17.37,24.09,24.09,0,0,0,9.66,11.27,27.82,27.82,0,0,0,14.73,3.92,25.52,25.52,0,0,0,12.68-3.08q5.5-3.08,12.09-12.22l1.68,1.09q-5.55,9.85-12.95,14.42a32.8,32.8,0,0,1-17.58,4.58q-18.34,0-28.42-13.61a38.9,38.9,0,0,1-7.51-23.84,42.38,42.38,0,0,1,5-20.31A35.79,35.79,0,0,1,226.5,27.41a36.87,36.87,0,0,1,19-5.09,34.87,34.87,0,0,1,15.79,3.92,8.53,8.53,0,0,0,3.26,1.2,3.61,3.61,0,0,0,2.56-1,8.52,8.52,0,0,0,2-4.08Z" style="fill:#bf997e"></path><path d="M346.3,24l.82,17.31h-2.07a21,21,0,0,0-1.63-6.54,11,11,0,0,0-4.49-4.65,15.65,15.65,0,0,0-7.38-1.5H321.16V85q0,6.8,1.47,8.49C324,95,326.13,95.8,329,95.8h2.56v2h-31.3v-2h2.62q4.68,0,6.64-2.83,1.19-1.74,1.19-7.94V28.63h-8.87a24.6,24.6,0,0,0-7.35.77,10,10,0,0,0-4.84,4,16.08,16.08,0,0,0-2.4,8h-2.07L286.05,24Z" style="fill:#bf997e"></path><path d="M414.09,97.82H394.38l-25-34.51c-1.86.07-3.36.11-4.52.11l-1.53,0-1.68-.08V84.75c0,4.65.5,7.54,1.52,8.66,1.38,1.6,3.45,2.39,6.21,2.39h2.88v2H340.65v-2h2.78q4.68,0,6.7-3,1.14-1.7,1.14-8V37.07c0-4.64-.51-7.53-1.53-8.65-1.41-1.6-3.52-2.4-6.31-2.4h-2.78V24h26.89q11.76,0,17.34,1.71A19.77,19.77,0,0,1,394.35,32a16.39,16.39,0,0,1,3.9,11,17.24,17.24,0,0,1-4.44,11.82q-4.44,5-13.75,7.07l15.25,21.18q5.22,7.29,9,9.69a22.63,22.63,0,0,0,9.8,3ZM361.67,59.88c.68,0,1.28,0,1.79,0l1.25,0q10.56,0,15.93-4.57A14.65,14.65,0,0,0,386,43.71a15.19,15.19,0,0,0-4.33-11.24c-2.89-2.88-6.7-4.33-11.46-4.33a48.06,48.06,0,0,0-8.54,1Z" style="fill:#bf997e"></path><path d="M436.36,95.8v2H404.73v-2h2.62c3,0,5.26-.88,6.64-2.66q1.31-1.74,1.3-8.39V37.07c0-3.74-.23-6.2-.7-7.4a4.93,4.93,0,0,0-2.23-2.34,10.35,10.35,0,0,0-5-1.31h-2.62V24h31.63v2h-2.67c-3,0-5.21.89-6.58,2.67q-1.37,1.74-1.36,8.38V84.75q0,5.61.7,7.41a4.85,4.85,0,0,0,2.29,2.34,10,10,0,0,0,4.95,1.3ZM432.71,0,416.65,18.78H414.8L420.52,0Z" style="fill:#bf997e"></path><rect x="60.96" y="107.84" width="81.8" height="26.6" style="fill:#bf997e"></rect><path d="M162.3,120.22H172v-6a7.08,7.08,0,0,0-.2-2.1,1.42,1.42,0,0,0-.65-.66,2.83,2.83,0,0,0-1.39-.37H169v-.56h8.9v.56h-.74a2.85,2.85,0,0,0-1.39.36,1.28,1.28,0,0,0-.67.74,7.23,7.23,0,0,0-.18,2v13.42a7,7,0,0,0,.2,2.09,1.41,1.41,0,0,0,.63.66,3,3,0,0,0,1.41.36h.74v.57H169v-.57h.74a2.19,2.19,0,0,0,1.86-.75,4.55,4.55,0,0,0,.38-2.36v-6.33H162.3v6.33a6.71,6.71,0,0,0,.2,2.09,1.39,1.39,0,0,0,.64.66,2.85,2.85,0,0,0,1.39.36h.76v.57h-8.91v-.57h.73a2.19,2.19,0,0,0,1.87-.75,4.58,4.58,0,0,0,.37-2.36V114.27a7.08,7.08,0,0,0-.2-2.1,1.41,1.41,0,0,0-.63-.66,3,3,0,0,0-1.41-.37h-.73v-.56h8.91v.56h-.76a2.85,2.85,0,0,0-1.39.36,1.3,1.3,0,0,0-.66.74,7.23,7.23,0,0,0-.18,2Z" style="fill:#bf997e"></path><path d="M194.5,130.8v.57h-8.91v-.57h.73a2.19,2.19,0,0,0,1.87-.75,4.58,4.58,0,0,0,.37-2.36V114.26a7,7,0,0,0-.2-2.09,1.41,1.41,0,0,0-.63-.66,3,3,0,0,0-1.41-.37h-.73v-.56h8.91v.56h-.76a2.21,2.21,0,0,0-1.85.75,4.51,4.51,0,0,0-.38,2.37v13.43a6.71,6.71,0,0,0,.2,2.09,1.39,1.39,0,0,0,.64.66,2.85,2.85,0,0,0,1.39.36Z" style="fill:#bf997e"></path><path d="M202.82,123.17h7.93v2.31h-7.93Z" style="fill:#bf997e"></path><path d="M224.85,111.71v8.22h4.57a3.71,3.71,0,0,0,2.38-.54,3.44,3.44,0,0,0,.89-2.48h.57v7.24h-.57a8,8,0,0,0-.43-2,1.87,1.87,0,0,0-.91-.84,4.51,4.51,0,0,0-1.93-.31h-4.57v6.86a6.52,6.52,0,0,0,.12,1.68,1,1,0,0,0,.43.47,2.61,2.61,0,0,0,1.17.18h3.53a9.26,9.26,0,0,0,2.56-.25,3.76,3.76,0,0,0,1.53-1,11.88,11.88,0,0,0,1.95-2.87h.61L235,131.37h-16v-.57h.74a2.84,2.84,0,0,0,1.39-.35,1.29,1.29,0,0,0,.67-.73,7.11,7.11,0,0,0,.18-2V114.2a4.51,4.51,0,0,0-.4-2.44,2.37,2.37,0,0,0-1.84-.62h-.74v-.56h16l.23,4.55h-.6a7.11,7.11,0,0,0-.71-2.25,2.49,2.49,0,0,0-1.16-.94,7.05,7.05,0,0,0-2.16-.23Z" style="fill:#bf997e"></path><path d="M243.34,110.58H249l12.71,15.59v-12a4.06,4.06,0,0,0-.43-2.39,2.28,2.28,0,0,0-1.79-.65h-.73v-.56H266v.56h-.73a2.12,2.12,0,0,0-1.87.8,4.58,4.58,0,0,0-.34,2.24v17.53h-.55L248.79,115v12.81a4.22,4.22,0,0,0,.41,2.39,2.3,2.3,0,0,0,1.79.64h.74v.57h-7.24v-.57h.72a2.14,2.14,0,0,0,1.89-.79,4.74,4.74,0,0,0,.34-2.24V113.31a9.48,9.48,0,0,0-1.38-1.4,5.38,5.38,0,0,0-1.37-.63,5,5,0,0,0-1.35-.14Z" style="fill:#bf997e"></path><path d="M273.26,131.37v-.57H274a2.07,2.07,0,0,0,1.87-.84,4.73,4.73,0,0,0,.34-2.27V114.26a4.36,4.36,0,0,0-.43-2.44,2.26,2.26,0,0,0-1.78-.68h-.78v-.56h8.46a18.65,18.65,0,0,1,7.1,1,8.52,8.52,0,0,1,3.91,3.53,11,11,0,0,1,1.48,5.71,10.39,10.39,0,0,1-2.64,7.25q-3,3.25-9,3.25Zm5.93-1.5a15.46,15.46,0,0,0,3.27.43,7.73,7.73,0,0,0,5.9-2.5,11,11,0,0,0,0-13.57,7.9,7.9,0,0,0-6-2.49,13,13,0,0,0-3.15.45Z" style="fill:#bf997e"></path><polygon points="360.69 123.1 366.77 123.1 363.77 115.94 360.69 123.1" style="fill:#bf997e"></polygon><path d="M413.78,112.83A4.67,4.67,0,0,0,410,114.6c-1.2,1.46-1.79,3.6-1.79,6.43A10.55,10.55,0,0,0,410,127.7a4.59,4.59,0,0,0,3.77,1.78,5.15,5.15,0,0,0,4.12-1.95c1.08-1.3,1.62-3.34,1.62-6.14,0-3-.59-5.29-1.79-6.78A4.83,4.83,0,0,0,413.78,112.83Z" style="fill:#bf997e"></path><path d="M329.57,113.83a4,4,0,0,0-2-.49,8.14,8.14,0,0,0-1.72.25V121c.47.09.87.15,1.23.2a8.43,8.43,0,0,0,.92.06,3.11,3.11,0,0,0,2.34-1,3.81,3.81,0,0,0,1-2.72,5,5,0,0,0-.47-2.14A3.32,3.32,0,0,0,329.57,113.83Z" style="fill:#bf997e"></path><path d="M305.74,104.9v32.48H436.48V104.9Zm27.18,15.81a5.65,5.65,0,0,1-4.05,1.36,11.52,11.52,0,0,1-1.38-.09,15.45,15.45,0,0,1-1.6-.28v5.17a3.62,3.62,0,0,0,.37,2.07,1.85,1.85,0,0,0,1.5.58h.68V130h-7.59v-.48h.67a1.81,1.81,0,0,0,1.61-.73,4.38,4.38,0,0,0,.26-1.92V115.42a3.69,3.69,0,0,0-.36-2.08,1.92,1.92,0,0,0-1.51-.57h-.67v-.48h6.49a11.38,11.38,0,0,1,3.75.49,5.08,5.08,0,0,1,2.32,1.65,4.27,4.27,0,0,1,.94,2.76A4.64,4.64,0,0,1,332.92,120.71Zm16-7.94h-.64a1.87,1.87,0,0,0-1.58.64,4,4,0,0,0-.32,2v11.45a5.59,5.59,0,0,0,.17,1.77,1.1,1.1,0,0,0,.55.56,2.38,2.38,0,0,0,1.18.32h.64V130H341.3v-.48h.63a1.9,1.9,0,0,0,1.59-.64,4,4,0,0,0,.32-2V115.42a6,6,0,0,0-.17-1.78,1.25,1.25,0,0,0-.54-.56,2.44,2.44,0,0,0-1.2-.31h-.63v-.48h7.59Zm25,17.23h-7v-.48a2.56,2.56,0,0,0,1.43-.36.9.9,0,0,0,.37-.73,5.37,5.37,0,0,0-.52-1.81l-1.07-2.55h-6.86l-1.2,2.8a4.26,4.26,0,0,0-.44,1.54.88.88,0,0,0,.38.71,3.41,3.41,0,0,0,1.67.4V130h-5.58v-.48a3,3,0,0,0,1.44-.51,8.15,8.15,0,0,0,1.47-2.55l6.23-14.58h.46l6.17,14.74a6.52,6.52,0,0,0,1.35,2.3,2.74,2.74,0,0,0,1.69.6Zm24.6-17.23h-.63a1.79,1.79,0,0,0-1.59.68,3.85,3.85,0,0,0-.29,1.91v14.93h-.47L383.86,116v10.91a3.59,3.59,0,0,0,.35,2,2,2,0,0,0,1.53.55h.63V130H380.2v-.48h.61a1.82,1.82,0,0,0,1.61-.68,4,4,0,0,0,.29-1.91V114.61a8.7,8.7,0,0,0-1.17-1.19,4.31,4.31,0,0,0-1.17-.53,4.09,4.09,0,0,0-1.15-.12v-.48H384l10.83,13.28V115.36a3.46,3.46,0,0,0-.37-2,1.92,1.92,0,0,0-1.53-.55h-.61v-.48h6.17Zm21.47,15a8.51,8.51,0,0,1-12.31.07,9.34,9.34,0,0,1-2.49-6.73,9,9,0,0,1,2.87-6.89,8.47,8.47,0,0,1,6-2.31,8,8,0,0,1,6,2.62,9.08,9.08,0,0,1,2.53,6.54A9.31,9.31,0,0,1,420,127.74Z" style="fill:#bf997e"></path><path d="M1.63,181.87,2,182a1,1,0,0,1,.48-.74h.2c.17,0,.39-.23.67-.68l.43-.26a.62.62,0,0,0,.3.05c.11,0,.2-.06.3-.2a7,7,0,0,1,.7-.78h.1c.1,0,.22-.08.37-.23a.75.75,0,0,1,.57-.23l.87-.23.45-.1c.16,0,.53.26,1.12.92a3,3,0,0,1,.89,1.94.6.6,0,0,1-.56.64l-.13.1v.51l-.43.93a.89.89,0,0,1-.43.49c-.15.27-.26.45-.33.55l-.35,0-.16.16v.63a7.86,7.86,0,0,0-.66,1.33A5.24,5.24,0,0,0,6,188.19q0,.48.21.48a.44.44,0,0,0,.3-.13,4.12,4.12,0,0,1,.42-.29,1.22,1.22,0,0,0,.39-.34,1.07,1.07,0,0,1,.53-.32,1.85,1.85,0,0,0,.76-.52l.51-.51a2.16,2.16,0,0,0,.33-.34c.12-.14.19-.21.23-.21a1.88,1.88,0,0,0,.48-.11,2.27,2.27,0,0,1,.1-.4l.61-.31,1.47-1.31.2-.26a2.34,2.34,0,0,0,.51-.15,1.66,1.66,0,0,1,.68-1c0-.06.08-.11.25-.15a2,2,0,0,1,.52-.65,1.85,1.85,0,0,0,.52-.59l.58-.48a.66.66,0,0,0,.36-.31A15,15,0,0,1,17.55,179a2.39,2.39,0,0,1,1-.16,1.41,1.41,0,0,1,1.15.54,3.23,3.23,0,0,0,1,.83,1.09,1.09,0,0,1,.51,1.06,7.75,7.75,0,0,1-1.14,2.81,16.09,16.09,0,0,0-.76,2.68c0,.33-.09.52-.22.57s-.21.11-.21.18v.1c0,.4.07.61.21.61a.72.72,0,0,0,.41-.26,3.46,3.46,0,0,1,1.08-.55l.23.05a3.71,3.71,0,0,1,1-1.21,1.15,1.15,0,0,0,.51-.45.81.81,0,0,1,.62-.4.77.77,0,0,0,.46-.12c0-.41.35-.87,1-1.37a4.28,4.28,0,0,1,1.13-.76c.16,0,.3.12.4.38a1.41,1.41,0,0,0,.32.52c.1.09.16.17.16.24v.45a.41.41,0,0,1-.33.43q-.25.57-.45.66l-.46-.05c-.09.1-.16.2-.22.28s-.09.12-.11.1a2.43,2.43,0,0,0-.72.67c-.35.42-.65.76-.92,1l-.1.15a1.65,1.65,0,0,1-.38.21l-.46.38a1.49,1.49,0,0,0-.3-.16s-.11.07-.22.21a3.1,3.1,0,0,1-.66.52,2.43,2.43,0,0,0-.74.72l-.41.4-.53.08c-.05,0-.13.08-.25.23l-.46.58a1.2,1.2,0,0,1-1,.43.68.68,0,0,1-.4-.26c-.16-.18-.31-.33-.45-.46a14.35,14.35,0,0,1-1-1.14,10.18,10.18,0,0,1-.75-1l.15-.89-.05-.61a1.2,1.2,0,0,1,.24-.54q.24-.37.24-.39l-.05-1a.49.49,0,0,0,.1-.16l.36-.58A2.43,2.43,0,0,1,16,184l.1-.83a1.81,1.81,0,0,0-.8.82,1,1,0,0,1-.9.62c-.32.58-.57.86-.73.84a.94.94,0,0,0-.16.2l-.35.2-.43,0-.16.64a2.12,2.12,0,0,0-.72.54,2.09,2.09,0,0,1-.52.5l-.43.4h-.4A1.63,1.63,0,0,1,9.73,189l-.2.26-.46-.05c-.17.54-.38.87-.63,1s-.68.27-1.18.79-.85.79-1,.79Q4,191.79,2.63,189a4.12,4.12,0,0,0-.24-.38,1.5,1.5,0,0,1-.19-.86,2.43,2.43,0,0,1,.26-1.34,7.19,7.19,0,0,0,.69-1.33c.28-.65.49-.94.62-.85a.8.8,0,0,0,0-.31,1.4,1.4,0,0,0,.41-.73.09.09,0,0,0-.1-.1,1,1,0,0,0-.31.15l-.36.15a.51.51,0,0,0-.33.2.81.81,0,0,1-.35.29l-.41.25H2.29c-.1-.11-.17-.16-.2-.16a1.61,1.61,0,0,1-.26.51l-.3.05c-.37.39-.61.58-.71.58A1.3,1.3,0,0,1,.36,185q-.36-.18-.36-.36l.18-1v-.45s.07-.1.2-.21.17-.18.41-.54A1,1,0,0,1,1.63,181.87Z" style="fill:#bebaba"></path><path d="M48.72,187.17h.1l.25.1a.11.11,0,0,0,.1-.05.9.9,0,0,1,.41-.73,1.18,1.18,0,0,1,.57-.74c.3-.17.77-.44,1.41-.83l.64-.56.3-.15.21-.26a.74.74,0,0,1,.53-.33c.25,0,.38.1.38.28l-.23.51.1.84a1.19,1.19,0,0,1-.31.81l-1,1-1.3,1.37-.68.35a2.28,2.28,0,0,0-.46.36l-1,.83a.6.6,0,0,1-.23.53h-.4l-.21.1a2,2,0,0,1-1,.94l-.35.26a.54.54,0,0,1-.33.15l-.71-.1L45,192a1.23,1.23,0,0,1-.55-.2,2.92,2.92,0,0,0-.7-.32c-.24-.08-.54-.39-.9-.94a4.9,4.9,0,0,1-.6-1.08.89.89,0,0,0-.11-.34,1,1,0,0,1-.11-.29,3.14,3.14,0,0,1,.22-.51v-.05a1,1,0,0,0-.14-.35,1.6,1.6,0,0,1-.14-.69,1.59,1.59,0,0,0-.15-.58q.21-.21.21-.3A1,1,0,0,0,42,186a.85.85,0,0,1-.08-.29l.16-1.24-.11-.63.05-.61c0-.36-.15-.53-.45-.53A.9.9,0,0,0,41,183l-.17.06a5.78,5.78,0,0,0-1,.54,1,1,0,0,1-.58.22,1.55,1.55,0,0,1-.58.28l-.21.15a2.82,2.82,0,0,1-.4.3,5.57,5.57,0,0,1-1,.85c-.63.52-1.2,1-1.7,1.46a3.23,3.23,0,0,1-1.1.75c-.23,0-.34.25-.34.64,0,.07-.15.21-.46.41a3.09,3.09,0,0,0-.53.56,2.2,2.2,0,0,0-.45-.31q-.33,0-.48.84c-.11.22-.38.35-.82.4a1.42,1.42,0,0,0-.18.38l-.1.1h-.25s-.15.1-.36.3a1.55,1.55,0,0,1-.53.36c-.22.46-.41.69-.56.69a.76.76,0,0,1-.29-.1,2.31,2.31,0,0,0-.47-.18c-.19-.05-.4-.26-.62-.62a1.83,1.83,0,0,1-.35-.93c0-1.87.37-2.9,1.09-3.06l.05-.1v-.21a.49.49,0,0,1,.3-.47,1.74,1.74,0,0,0,.59-.55,1.76,1.76,0,0,1,.41-.47h.33c.06,0,.1-.18.1-.54a.37.37,0,0,1,.12-.27.6.6,0,0,0,.16-.37,2.19,2.19,0,0,1,.37-.79,2.81,2.81,0,0,0,.34-.64l-.05-.11a2.62,2.62,0,0,1-.92.64c-.18,0-.44.28-.76.73l-.4-.07a9,9,0,0,1-1.32.88,1.45,1.45,0,0,0-.56.59.2.2,0,0,1-.18.2,2.58,2.58,0,0,0-.66.41h-.15c-.43,0-.64-.31-.64-.92l.53-1.44a2.14,2.14,0,0,1,1.08-1.16,14.63,14.63,0,0,0,1.43-.89,2.14,2.14,0,0,1,1.17-.46l.17-.26a1.92,1.92,0,0,0,1.17-1c.2-.48.48-.71.83-.71a2.46,2.46,0,0,1,2.13,1,3.2,3.2,0,0,1,.74,1.64l0,.68a4.12,4.12,0,0,1-.16,1,1.48,1.48,0,0,0-.3.69c0,.13.08.2.25.2a.72.72,0,0,0,.41-.22,4.07,4.07,0,0,1,.57-.39,1,1,0,0,0,.37-.3,1.41,1.41,0,0,1,.88-.84,2.56,2.56,0,0,0,.79-.38l.25-.2.2-.38a3.08,3.08,0,0,0,.92-.56,1,1,0,0,1,.6-.33,2,2,0,0,0,.86-.46l.38-.1.36-.2a.71.71,0,0,1,.3-.13q.26-.07.75-.27a2.46,2.46,0,0,1,.67-.18,2.38,2.38,0,0,1,2,1,3.22,3.22,0,0,1,.75,1.68l0,.45.1.69v.1l-.21,1.39.06.48a2.14,2.14,0,0,1-.51,1.65c-.09,0-.13.12-.13.26v.22l.51,1.07c.15.37.27.56.35.56l.82-.23a1,1,0,0,0,.58-.53,3.67,3.67,0,0,0,.71-.61A.53.53,0,0,1,48.72,187.17Z" style="fill:#bebaba"></path><path d="M54.54,183.37l.4-.36h.16c.11,0,.29-.12.53-.38l.25-.1a2.16,2.16,0,0,1,.89-.88l.41-.31a.85.85,0,0,1,.29-.18,2.26,2.26,0,0,0,.61-.49c.28-.28.5-.42.67-.42a1.53,1.53,0,0,1,.41.05,1.57,1.57,0,0,1,.61-.59,2.58,2.58,0,0,0,.73-.7l.33-.15a2.88,2.88,0,0,0,.72-.52,1.15,1.15,0,0,1,.83-.32,2.3,2.3,0,0,1,1.53.75,2.05,2.05,0,0,1,.8,1.43l-.43,2q-.44,2.17-1,2.28l-.1.53c-.24.17-.36.31-.36.41L63,186c0,.08-.09.21-.27.38q-.06,0-.06.15v1a.5.5,0,0,1-.35.45.48.48,0,0,0,.15.11,1,1,0,0,1,.69-.16l.4.05.56-.55a3,3,0,0,0,.49-.24,7.29,7.29,0,0,1,1.08-.5L69,184.21c.46-.46.81-.69,1-.69s.38.16.38.48a1.86,1.86,0,0,1-.21.93,4.37,4.37,0,0,0-.4.89,1.61,1.61,0,0,1-.41.72,1.65,1.65,0,0,0-.4.44,3,3,0,0,1-.82.7,7.47,7.47,0,0,0-1.14.92,5.55,5.55,0,0,1-.77.68l-1.09.78-.16.26a2.62,2.62,0,0,1-.47.21,3.15,3.15,0,0,0-.74.42l-.46.25a1,1,0,0,1-.49.13.9.9,0,0,0-.6.29c-.17.18-.3.27-.4.27l-.39,0L61,192a1.76,1.76,0,0,1-1-.52,1.44,1.44,0,0,1-.62-1.1v-.16l0-.35a2,2,0,0,0-.16-.52,3.52,3.52,0,0,1-.15-.47l.05-.35-.05-.16a2.38,2.38,0,0,1,.1-.86,1.56,1.56,0,0,0,.16-.49,3.71,3.71,0,0,1,.1-.52l.12-.64a.79.79,0,0,1,.26-.4c0-.14.1-.36.2-.69l.1-.45.25-.36a.86.86,0,0,0,.25-.54,1.71,1.71,0,0,1,.26-.72,1.9,1.9,0,0,0,.23-.46.27.27,0,0,0-.3-.3,2.16,2.16,0,0,0-.64.4l-.45-.15s-.13.08-.28.25c0,.07-.08.12-.23.15a.8.8,0,0,0-.43.38l-.21,0-.33-.15h-.1c-.17,0-.27.19-.3.56a1.27,1.27,0,0,1-.74.53l-.55.16a.65.65,0,0,0-.41.45,1.46,1.46,0,0,1-.51.65,1.29,1.29,0,0,1-.5.29c-.48,0-.71-.26-.71-.79l.2-1.19Zm10.95-12.68-.15-1v-.16c0-.79.27-1.23.81-1.31.12,0,.47-.13,1.06-.33a1.72,1.72,0,0,1,1,.8,2.21,2.21,0,0,1,.5,1.22.87.87,0,0,1-.08.23,2.48,2.48,0,0,0-.1.67,1.19,1.19,0,0,1-.49.87,1.64,1.64,0,0,1-1,.36,1.55,1.55,0,0,1-.9-.49A1.59,1.59,0,0,1,65.49,170.69Z" style="fill:#bebaba"></path><path d="M79.13,179.52l.78-.46a6.58,6.58,0,0,1,1.67-.72,3.85,3.85,0,0,0,.92-.29,5.56,5.56,0,0,1,1.52-.33l.25-.1a1.2,1.2,0,0,1,.41-.11,3.92,3.92,0,0,1,.53.16l.46.05c.82.06,1.43.88,1.82,2.43v.63c0,.21.07.31.2.31s.24-.14.4-.42.31-.44.47-.49a2.11,2.11,0,0,0,.54-.33,1.55,1.55,0,0,1,1-.26,1.27,1.27,0,0,1,1.34.86v.33l.1,1.15a1.19,1.19,0,0,1-.28.59,12.13,12.13,0,0,0-.73,1.26l-.33.43a11.34,11.34,0,0,0-.84,1.14l-.1.1-.41.1-.2,1-.48.25a7.54,7.54,0,0,1-.28,1,1.3,1.3,0,0,1-.48.22c-.29.11-.43.25-.43.44s.11.4.33.4a2.5,2.5,0,0,0,.78-.23,10.22,10.22,0,0,1,1-.33.12.12,0,0,0,.1.05l.44-.22a1.65,1.65,0,0,0,.47-.32,1.34,1.34,0,0,1,.56-.24l1.19-.89h.51c.07,0,.14-.06.23-.18l.84-.68a10.44,10.44,0,0,1,1.3-.88,4.39,4.39,0,0,0,1.23-.95c.24-.28.41-.43.51-.43s.3.16.3.48l-.1.41,0,.84a1.3,1.3,0,0,1-.76,1.09l-.18.15a2.66,2.66,0,0,1-.6.35,1,1,0,0,1-.44.56c-.23.15-.52.35-.85.6a2.79,2.79,0,0,1-.9.47.73.73,0,0,1-.62.48,1.85,1.85,0,0,0-1,.57c-.33.33-.58.49-.74.49l-.44-.05c-.32.36-.55.53-.71.53h-.12l-.21,0c-.07,0-.16.08-.29.24a1.22,1.22,0,0,1-.67.38,1.84,1.84,0,0,0-.66.31.65.65,0,0,1-.46.16l.43,1.85v.11a8.72,8.72,0,0,1-.15,1.14h-.28c-.17,0-.25.09-.25.27a.59.59,0,0,0,.35.56,1.6,1.6,0,0,1-.15.57,2.26,2.26,0,0,0-.15.85,1.68,1.68,0,0,1-.41.8,3.94,3.94,0,0,0-.61,1.27,7.16,7.16,0,0,1-1,1.86l-.16.74a4.55,4.55,0,0,1-.74,1.58c-.13,0-.19.08-.19.12l0,.27a2.26,2.26,0,0,1-.21.46l-.05.15a1.16,1.16,0,0,1-.17.4c-.12.19-.28.49-.49.89l-.22.23v.56l-.1.2a2.7,2.7,0,0,0-.44.59,1.75,1.75,0,0,1-.48.55,1.52,1.52,0,0,0-.42.52,1.19,1.19,0,0,1-.21.42,4.89,4.89,0,0,0-.32.5,4,4,0,0,1-.37.54,1.9,1.9,0,0,0-.27.45.67.67,0,0,1-.4.31,1.66,1.66,0,0,0-.47.28.61.61,0,0,1-.45.15h-.28l-.41.33a1.8,1.8,0,0,1-1.62-.69A2.58,2.58,0,0,1,76,209l.44-2.38c.13-.81.2-1.27.2-1.37a4.6,4.6,0,0,1,.33-1,5.59,5.59,0,0,0,.38-1.31l.18-.41c.13-.38.23-.7.3-.93l1.75-4a13.1,13.1,0,0,1,1-1.85l.23-.53.4-.74v-.4q0-.1.51-.63a6.75,6.75,0,0,1,.58-1.5l.25-.74-.55-.93c0-.27.46-.6,1.39-1l.25-.17a5.69,5.69,0,0,1,1-1.85v-.54c0-.2.16-.45.49-.76l0-.18L85,186a.76.76,0,0,1-.61.41,1.09,1.09,0,0,0-.63.27c-.14.14-.22.2-.26.2l-.3-.1c-.07,0-.21.18-.42.55a2.37,2.37,0,0,1-1.25.9,1.29,1.29,0,0,0-.35.28,1.65,1.65,0,0,1-.35.27,1.8,1.8,0,0,0-.31.28c-.12.14-.2.21-.23.21l-.46-.16a2.33,2.33,0,0,1-.58.59s0,.05,0,.05l-.35-.05-1,.71a.13.13,0,0,0-.1.07l-.48-.12q-.73.78-1,.78l-1,.2-.5-.05-.36.05a4.34,4.34,0,0,1-1-.31,1.78,1.78,0,0,1-1-.83,3.17,3.17,0,0,1-.23-1.29,4.59,4.59,0,0,1,.3-1.91,4.35,4.35,0,0,0,.36-1.14,1.67,1.67,0,0,1,.45-.92c.24-.26.53-.61.86-1a8,8,0,0,1,.75-.88,4.24,4.24,0,0,0,.38-.4c.55-.65,1-1,1.44-1a2.77,2.77,0,0,0,.31-.51l.3-.2a3.14,3.14,0,0,0,.6-.49,2.32,2.32,0,0,1,.92-.5C78.75,179.73,78.89,179.6,79.13,179.52ZM75,189.28h.1l.73-.21.21.05a3,3,0,0,1,.82-.3,2.44,2.44,0,0,0,.86-.37c.26-.17.66-.4,1.18-.67a2.24,2.24,0,0,0,.94-.46,2.13,2.13,0,0,1,.46-.32.84.84,0,0,1,.38-.17,1.84,1.84,0,0,0,.68-.43,2.76,2.76,0,0,1,.76-.5l1.24-.76h.16c.08,0,.29-.22.63-.68l.3-.3.46-.11.28.06c.07,0,.16-.19.28-.55a.74.74,0,0,1,.76-.55,1.76,1.76,0,0,1,.35-.41.45.45,0,0,0,.21-.32c0-.07,0-.1-.11-.1l-.35.15h-.1q-.37,0-1-.63a1.73,1.73,0,0,0-.68-.21c-.07,0-.54.07-1.4.21a2.31,2.31,0,0,1-1,.23,1.16,1.16,0,0,0-.94.55,3.9,3.9,0,0,0-1,.31l-.31.43a2.3,2.3,0,0,0-.73.25,1.77,1.77,0,0,1-.9.61c-.23,0-.74.42-1.54,1.22l-.48.4a.46.46,0,0,0-.46.48.6.6,0,0,1-.2.49,1.67,1.67,0,0,0-.38.6l-.51.76-.15.79C74.56,189.12,74.7,189.28,75,189.28ZM79.35,206l0,.68a2.55,2.55,0,0,1-.1.56,2,2,0,0,0-.1.53c0,.34.06.51.2.51a.16.16,0,0,0,.1,0c.46,0,1.11-.92,2-2.77a2.11,2.11,0,0,1,.73-.81c0-.13.17-.5.39-1.1s.38-1,.45-1.25l.3-1.07c.1-.35.29-.89.56-1.62l.51-2.38a9.64,9.64,0,0,0,.28-1.93,3.52,3.52,0,0,0-.51-1.77.17.17,0,0,0-.13.17l.13.76a1,1,0,0,1-.48.79s-.06,0-.08.1-.18.52-.49,1.36S82.38,198,82,198l0,.71c0,.07-.14.21-.43.43l.1.46a6.42,6.42,0,0,0-.52,1.43,2.09,2.09,0,0,1-.35.85,2.65,2.65,0,0,0-.42,1,9.12,9.12,0,0,1-.66,1.75l-.13.51A1.46,1.46,0,0,0,79.35,206Z" style="fill:#bebaba"></path><path d="M99.91,181.87l.35.16a1.06,1.06,0,0,1,.49-.74h.2c.17,0,.39-.23.66-.68l.44-.26a.58.58,0,0,0,.3.05.36.36,0,0,0,.29-.2,10,10,0,0,1,.7-.78h.11a.58.58,0,0,0,.36-.23.78.78,0,0,1,.58-.23l.86-.23a3.58,3.58,0,0,1,.46-.1c.15,0,.52.26,1.12.92a3,3,0,0,1,.88,1.94.59.59,0,0,1-.56.64l-.12.1v.51l-.43.93a.93.93,0,0,1-.43.49l-.33.55-.36,0-.15.16v.63a7.86,7.86,0,0,0-.66,1.33,4.82,4.82,0,0,0-.43,1.31c0,.32.07.48.2.48a.47.47,0,0,0,.31-.13c.1-.08.24-.18.41-.29a1.4,1.4,0,0,0,.4-.34,1,1,0,0,1,.53-.32,1.92,1.92,0,0,0,.76-.52c.24-.25.4-.42.51-.51a2.16,2.16,0,0,0,.33-.34c.11-.14.19-.21.22-.21a1.88,1.88,0,0,0,.48-.11,2.1,2.1,0,0,1,.11-.4l.6-.31,1.47-1.31.21-.26a2,2,0,0,0,.5-.15,1.72,1.72,0,0,1,.69-1c0-.06.08-.11.25-.15a1.87,1.87,0,0,1,.52-.65,2,2,0,0,0,.52-.59l.58-.48a.66.66,0,0,0,.36-.31,14,14,0,0,1,1.63-1.33,2.36,2.36,0,0,1,1-.16,1.43,1.43,0,0,1,1.15.54,3.09,3.09,0,0,0,1,.83,1.08,1.08,0,0,1,.52,1.06,7.75,7.75,0,0,1-1.14,2.81,16.09,16.09,0,0,0-.76,2.68c0,.33-.09.52-.23.57s-.2.11-.2.18v.1c0,.4.07.61.2.61s.24-.09.42-.26a3.46,3.46,0,0,1,1.08-.55l.22.05a3.81,3.81,0,0,1,1-1.21,1.13,1.13,0,0,0,.5-.45.83.83,0,0,1,.62-.4.81.81,0,0,0,.47-.12c0-.41.35-.87,1-1.37a4.51,4.51,0,0,1,1.12-.76c.17,0,.3.12.41.38a1.41,1.41,0,0,0,.31.52c.11.09.17.17.17.24v.45a.41.41,0,0,1-.33.43c-.17.38-.32.6-.46.66l-.45-.05c-.09.1-.16.2-.22.28s-.1.12-.11.1a2.2,2.2,0,0,0-.72.67c-.35.42-.66.76-.93,1l-.1.15a1.32,1.32,0,0,1-.38.21l-.45.38a1.23,1.23,0,0,0-.31-.16s-.1.07-.21.21a3.1,3.1,0,0,1-.66.52,2.36,2.36,0,0,0-.75.72l-.4.4-.53.08s-.14.08-.25.23l-.46.58a1.21,1.21,0,0,1-1,.43c-.1,0-.23-.09-.39-.26s-.31-.33-.45-.46a11.81,11.81,0,0,1-1-1.14,10.93,10.93,0,0,1-.74-1l.15-.89-.05-.61a1.2,1.2,0,0,1,.24-.54q.24-.37.24-.39l0-1a.74.74,0,0,0,.1-.16l.36-.58a2.4,2.4,0,0,1-.06-.56l.11-.83a1.72,1.72,0,0,0-.8.82,1,1,0,0,1-.9.62c-.32.58-.57.86-.74.84a.65.65,0,0,0-.15.2l-.36.2-.43,0-.15.64a2.12,2.12,0,0,0-.72.54,2.09,2.09,0,0,1-.52.5l-.43.4h-.41A1.65,1.65,0,0,1,108,189l-.21.26-.45-.05c-.17.54-.38.87-.64,1s-.68.27-1.18.79-.85.79-1,.79q-2.2,0-3.57-2.77l-.24-.38a1.49,1.49,0,0,1-.2-.86,2.33,2.33,0,0,1,.27-1.34,7.19,7.19,0,0,0,.69-1.33c.27-.65.48-.94.62-.85a.8.8,0,0,0,0-.31,1.36,1.36,0,0,0,.4-.73c0-.07,0-.1-.1-.1a1.2,1.2,0,0,0-.3.15l-.36.15a.51.51,0,0,0-.33.2.91.91,0,0,1-.36.29l-.4.25h-.08c-.1-.11-.17-.16-.2-.16a1.86,1.86,0,0,1-.26.51l-.31.05c-.37.39-.61.58-.71.58a1.37,1.37,0,0,1-.46-.17c-.23-.12-.35-.24-.35-.36l.17-1v-.45s.07-.1.21-.21a2.42,2.42,0,0,0,.41-.54A1,1,0,0,1,99.91,181.87Z" style="fill:#bebaba"></path><path d="M128.13,181.82l.53-.43a.63.63,0,0,0,.66-.63,1.34,1.34,0,0,1,.83-1l.31-.44a6.88,6.88,0,0,1,2.08-1,2,2,0,0,0,.58-.45.16.16,0,0,1,.1-.05l.41.1a2.64,2.64,0,0,0,.84-.18,3.07,3.07,0,0,1,1-.18l1.07-.05a1.18,1.18,0,0,1,.42.16,1.79,1.79,0,0,0,.77.15,1.43,1.43,0,0,1,1,.5,1.47,1.47,0,0,1,.46.94,2.31,2.31,0,0,1-.81,1.6,3,3,0,0,1-1.29.91,3,3,0,0,1-.65.55,1.59,1.59,0,0,0-.47.35.66.66,0,0,1-.39.24.21.21,0,0,1-.16-.06.18.18,0,0,0-.15-.06c-.27,0-.56.33-.88,1l-.46-.05a1.31,1.31,0,0,0-.56.6.51.51,0,0,1-.53.33c-.62.63-1,.94-1.26.94a1.84,1.84,0,0,1-.36-.1.88.88,0,0,0-.2.53c0,.2-.13.32-.4.36l-.33.3-.25-.05-.51.53a1.51,1.51,0,0,0-.79.26c0,.2-.08.46-.15.77a4.91,4.91,0,0,0-.1.52c0,.49.45.73,1.34.73l1.22-.17a1.71,1.71,0,0,0,.9-.26,1.7,1.7,0,0,1,.9-.25,1.53,1.53,0,0,0,.46-.1l.25.1a1.78,1.78,0,0,1,.66-.69,1.62,1.62,0,0,1,.76-.3l.26-.15a.63.63,0,0,1,.3-.41l.2-.17a.57.57,0,0,1,.38-.21h.36l.1-.05a1.2,1.2,0,0,1,.85-.77,1,1,0,0,0,.68-.37.62.62,0,0,1,.5-.3,1,1,0,0,0,.59-.34,2.91,2.91,0,0,1,.6-.55,5.89,5.89,0,0,0,.49-.38.47.47,0,0,1,.24-.13c.11,0,.16.08.16.23s0,.23.1.23a.09.09,0,0,0,.1-.1,1.05,1.05,0,0,0,0-.26v-.17a.49.49,0,0,1,.4-.51l1.14-.74c0-.35.14-.56.3-.62a.87.87,0,0,0,.36-.2.4.4,0,0,1,.28-.11c.22,0,.33.12.33.38l-.12.66.12.68a.76.76,0,0,1-.24.42,1.91,1.91,0,0,0-.37.81q-.12.54-.33.6h-.15a2.1,2.1,0,0,1-.72.57.78.78,0,0,0-.42.31l-.86,1a5.63,5.63,0,0,0-.43.46c-.12.13-.22.2-.28.2l-.21-.2s0-.05-.1-.05-.27.1-.31.3a1.27,1.27,0,0,1-.27.53,2.75,2.75,0,0,0-1,.66l-.15,0h-.46c-.22,0-.37.17-.46.5a.75.75,0,0,1-.72.57,1.58,1.58,0,0,0-.85.3.45.45,0,0,1-.23.1,3.89,3.89,0,0,0-.71.41l-2.13.76a1.26,1.26,0,0,1-.33.13l-.71.1a.41.41,0,0,1-.3-.2q-.15-.21-.21-.21l-.45.15a3.12,3.12,0,0,1-1,.16,1.14,1.14,0,0,1-.56-.18,3.81,3.81,0,0,0-.48-.25c-.49,0-.83-.38-1-1.15l-.3.06a7.33,7.33,0,0,1-.69-1.8.83.83,0,0,0-.48-.3.44.44,0,0,1-.33-.49,1.88,1.88,0,0,1,.5-1.53c.33-.27.51-.46.54-.6l.36-1.32a1.43,1.43,0,0,0,.25-.5l.58-1.07C127.74,182.59,127.89,182.3,128.13,181.82Zm5.36-1.52-.31.15-.59.45a6.05,6.05,0,0,1-1,.63,2.68,2.68,0,0,0-1,1.26,5.48,5.48,0,0,0-.49,1.16.14.14,0,0,0,.15.16l.86-.38a4.36,4.36,0,0,0,.9-.59,13.08,13.08,0,0,1,1.21-.86l.2-.2a1.57,1.57,0,0,1,.47-.37,2.64,2.64,0,0,0,.62-.52l.25-.1a1.86,1.86,0,0,1,.88-.84c.29-.1.44-.2.44-.3s-.16-.31-.48-.31a1.35,1.35,0,0,0-.61.26h-.58a1.76,1.76,0,0,0-.56.3Z" style="fill:#bebaba"></path><path d="M145.92,191.36l.15-.31a1.36,1.36,0,0,1,.18-.28,4.77,4.77,0,0,0,.39-.72,1.42,1.42,0,0,1,1.16-.77.93.93,0,0,1,.7-.26c.41,0,.89.39,1.45,1.16a4.19,4.19,0,0,1,.84,1.45,1.45,1.45,0,0,1-.56.94,2.15,2.15,0,0,1-.5,1.41,5.07,5.07,0,0,0-.62.89,1,1,0,0,1-.33.44s-.29.43-.88,1.2-1,1.16-1.3,1.16l-1.09-.38c-.22,0-.33-.12-.33-.26a1.85,1.85,0,0,1,.71-1.33,2.21,2.21,0,0,0,.81-1.33,3.29,3.29,0,0,1-1-2.38A2.7,2.7,0,0,1,145.92,191.36Z" style="fill:#bebaba"></path><path d="M169.87,207.5l-.4.28a1,1,0,0,1-.54.15,1.63,1.63,0,0,1-1.23-.83,3,3,0,0,1-.59-1.73,5.87,5.87,0,0,1,.31-2.27,3.6,3.6,0,0,0,.37-1s.18-.43.55-1.25a9.41,9.41,0,0,1,1-1.86,11,11,0,0,0,.81-1.2l.11-.2a2.74,2.74,0,0,1,.73-.84c0-.1.33-.45,1-1.05a21.8,21.8,0,0,1,1.83-1.53l.26-.36a2.87,2.87,0,0,1,.71-.38l1.47-.4a9.14,9.14,0,0,1,1-.79h.2l.68-.2a7.79,7.79,0,0,1,1.74-.47c.78-.14,1.22-.31,1.33-.51a4.52,4.52,0,0,0,.27-.54c.08-.17.26-.52.56-1.07.06-.28.12-.51.17-.68s.11-.27.17-.3a1.43,1.43,0,0,0,.29-.5,5.62,5.62,0,0,1,.41-.75s.05,0,.05-.05l-.15-.43a1.54,1.54,0,0,1,.41-.75c.15-.09.22-.15.22-.19l-.18-.45.43-.94c0-.07,0-.1-.1-.1a6.27,6.27,0,0,1-1.57.94,7,7,0,0,1-.56.6.94.94,0,0,0-.58.54l-.2.05-.15.25s-.06.08-.18.13a5.86,5.86,0,0,0-.71.4l-.3-.05c-.07,0-.16.17-.26.51a1.81,1.81,0,0,1-.82.62.89.89,0,0,0-.49.27l-.21.25-.25,0c-.35,0-.53.13-.53.41a.86.86,0,0,1-.3.53,1.19,1.19,0,0,0-.51.15h-.38a1.17,1.17,0,0,1-.91.68l-.74.51-.43.15a4.87,4.87,0,0,0-.6.37,2.27,2.27,0,0,1-1,.27,4.62,4.62,0,0,0-1.09-.4c-.49-.12-.84-.95-1-2.47h-.05a.83.83,0,0,0-.44.15.75.75,0,0,1-.35.16q-.6,0-.6-.51a1.45,1.45,0,0,1,.86-1.5l.63-.78,1.62-1.6c1.14-1.13,1.9-1.86,2.29-2.18s.81-.63,1.27-.94l1.3-.86a4.78,4.78,0,0,1,.81-.47.87.87,0,0,0,.32-.16,4,4,0,0,1,.92-.38l.46-.21a8,8,0,0,1,1.83-.48l.36,0a.82.82,0,0,0,.53-.2,2.24,2.24,0,0,0,1.09-.56l.92-.25a2.2,2.2,0,0,1,.63-.13h.49q.53,0,.69.84c.11.56.21.84.29.84s.14-.13.31-.38l.35-.26a1.48,1.48,0,0,1,.48-.25.72.72,0,0,1,.77.51v.05l.1.12a11.83,11.83,0,0,1,.22,1.5,3.06,3.06,0,0,1-.52,1.9,5.46,5.46,0,0,0-.62,1,16,16,0,0,1-1,3.1c-.08.18-.29.67-.61,1.47l-.25.25a.15.15,0,0,0-.1.15l.05.36a2.22,2.22,0,0,0-.43,1.09,2.69,2.69,0,0,1-.41.93,2.21,2.21,0,0,0,.44.27,3.15,3.15,0,0,1,.89.81,1.78,1.78,0,0,1,.5.9c0,.05-.1.38-.28,1a2.77,2.77,0,0,1-1.55.68,1.58,1.58,0,0,1-.74-.32l-.15.05v-.11a1.72,1.72,0,0,1-.52-.19.78.78,0,0,0-.37-.11.18.18,0,0,0-.2.2.41.41,0,0,0,0,.21,5.53,5.53,0,0,0-.41.38,4.51,4.51,0,0,1-.35.74,3,3,0,0,1-.64.9c-.37,0-.62.3-.76.84a2.12,2.12,0,0,1-.48,1l-.25-.1a8.12,8.12,0,0,1-1.73,2.48c-.35.09-.54.15-.54.19s0,.15,0,.33a2.05,2.05,0,0,1-.61.84,2.62,2.62,0,0,1-.67.57l-.26.05-.15.15c0,.34-.43.88-1.34,1.62-.49.28-.76.46-.79.56a3.26,3.26,0,0,1-1.5,1.14l-.48.43a1.91,1.91,0,0,1-.66.43Zm9.15-13-.76.1a.91.91,0,0,0-.43-.2q-.11,0-.15.15a2.6,2.6,0,0,1-1.35.69,3.92,3.92,0,0,0-1.4.57,1.43,1.43,0,0,1-.63.32c-.17,0-.25.05-.25.1a2.26,2.26,0,0,0-.38.35,1.79,1.79,0,0,0-.51.32,1.1,1.1,0,0,1-.53.26q-.45,1-.66,1a1,1,0,0,1-.25-.05h-.05a2,2,0,0,1-.51.76.92.92,0,0,0-.3.29,1.6,1.6,0,0,1-.5.42,1.16,1.16,0,0,0-.49.78,1.61,1.61,0,0,1-.32.73,1.4,1.4,0,0,0-.24.85l-.15.36a5.41,5.41,0,0,0-.22.87c-.09.48-.14.73-.14.75a.82.82,0,0,0,.31.63.75.75,0,0,1,.43-.18l1.49-.6c.05,0,.24-.19.56-.47a2.92,2.92,0,0,1,.85-.55,1.53,1.53,0,0,0,.67-.45,1.74,1.74,0,0,1,.5-.51.78.78,0,0,0,.34-.51c.39-.34.74-.65,1.06-1a2.86,2.86,0,0,0,.62-.73,1.34,1.34,0,0,1,.45-.5l.1-.33a.77.77,0,0,1,.22-.06c.1,0,.29-.3.54-.83l.68-1.14a4.45,4.45,0,0,0,1-1.54l.36-.31c.07,0,.1-.11.1-.22Zm-.45-8.08.3-.43a.94.94,0,0,1,.52-.31,1.11,1.11,0,0,0,.6-.43,3.77,3.77,0,0,1,1.44-1.27l.25-.17c.26-.49.49-.76.69-.8a.88.88,0,0,0,.53-.46,1.41,1.41,0,0,0,.23-.65c0-.06,0-.1-.15-.1a1,1,0,0,0-.62.21.89.89,0,0,1-.37.2l-.51-.05c-.3.17-.73.37-1.27.61l-.45.38a1.72,1.72,0,0,1-.55.25.5.5,0,0,0-.36.32c-.09.17-.2.26-.33.26l-.21.1c-.06.07-.26.11-.58.11a2.41,2.41,0,0,0-.52.43c-.18.18-.28.28-.32.28a2.86,2.86,0,0,1-1,.78.87.87,0,0,0-.54.43,1.48,1.48,0,0,0-.81.57,2.3,2.3,0,0,1-.6.61,1.87,1.87,0,0,0-.47.42l-.25.2a2,2,0,0,0-.42.67,2.32,2.32,0,0,0-.27.8q0,.15.18.15a2.66,2.66,0,0,0,.95-.36,4.43,4.43,0,0,0,.9-.57c.14-.14.23-.21.28-.21l1,0a.81.81,0,0,1,.52-.43.89.89,0,0,0,.57-.43,2.62,2.62,0,0,1,1.14-.71l.28-.45Z" style="fill:#bebaba"></path><path d="M196.05,179.85l.38-.1.15-.33a6.73,6.73,0,0,0,1.78-1.4.52.52,0,0,1,.23-.2,1.74,1.74,0,0,0,.38-.36,3,3,0,0,1,2.23-.93c1,0,1.55.61,1.62,1.85l.15.38a8.28,8.28,0,0,1,.57,1.44,6.3,6.3,0,0,1,.37,1.35,2.5,2.5,0,0,1-.43,1.36,10.12,10.12,0,0,0-1.7,1.9l-.25.18a5.06,5.06,0,0,1-.54.91c-.33.12-.5.25-.5.39v.45s0,.1-.12.2a4.63,4.63,0,0,0-.31.59l-.21.3a1.36,1.36,0,0,0-.2.42,1.92,1.92,0,0,1-.29.57.73.73,0,0,0-.19.41c0,.25.33.38,1,.38a1.73,1.73,0,0,0,.38-.16l.35.11s.12-.06.26-.17a1.57,1.57,0,0,1,.62-.27,2.08,2.08,0,0,0,.73-.3,3.84,3.84,0,0,1,.76-.35,2.75,2.75,0,0,0,.85-.5,2.79,2.79,0,0,1,.8-.49,2.22,2.22,0,0,0,.73-.47,6.16,6.16,0,0,1,.78-.6,9.7,9.7,0,0,0,1.37-1.22,3,3,0,0,1,.83-.53,2.85,2.85,0,0,0,.45-.67c.26-.45.56-.67.9-.67a.46.46,0,0,1,.53.51.79.79,0,0,1-.25.53v.15l.05.41a.42.42,0,0,1,0,.22c0,.07-.07.17-.19.31a1.08,1.08,0,0,0-.27.52.59.59,0,0,1-.48.42q-.15.56-.39.63a2,2,0,0,0-.68.51,10.62,10.62,0,0,1-1.21,1,8,8,0,0,0-1.08.9c-.19.21-.32.32-.39.32a.58.58,0,0,1-.2-.1.5.5,0,0,0-.21-.1c-.1,0-.17.11-.2.35l-.1.25a1.72,1.72,0,0,1-.38.21l-.15-.05h-.11c-.2,0-.3.07-.3.22l.15.26v0c0,.23-.13.35-.4.35a5.52,5.52,0,0,0-1.62.94l-.74.15-.61.33a1.19,1.19,0,0,0-.38-.18l-.4.13-.74.05s-.32-.17-.92-.5a2.23,2.23,0,0,1-1.08-1,6.55,6.55,0,0,0-.46-1,2.08,2.08,0,0,1-.28-.73,5,5,0,0,1,.21-1.73,5.37,5.37,0,0,0,.25-.78,1.2,1.2,0,0,1,.29-.54,2.38,2.38,0,0,0,.39-1,11.5,11.5,0,0,1,1-1.8,2.4,2.4,0,0,0,.43-.81l.33-.46a1.67,1.67,0,0,0,.15-.39c.07-.23.15-.36.25-.4a1.27,1.27,0,0,0,.21-.45c0-.49-.22-.74-.66-.74-.09,0-.18.09-.28.27a1.48,1.48,0,0,1-.7.52,2.68,2.68,0,0,0-.67.38,2.24,2.24,0,0,1-.55.32,1.9,1.9,0,0,0-.72.59l-.43.2c-.13.33-.25.5-.35.54l-.94.25a1.58,1.58,0,0,0-.26.3.66.66,0,0,1-.58.28,9.26,9.26,0,0,0-.61.71,2,2,0,0,0-.53.21l-.51.12a2.37,2.37,0,0,0-.44.48,1,1,0,0,1-.9.33c-.25,0-.38-.2-.38-.61a2.45,2.45,0,0,1,.87-2,3.33,3.33,0,0,1,1.28-.79.56.56,0,0,0,.51-.3.83.83,0,0,1,.5-.42,3,3,0,0,0,.91-.74,2.66,2.66,0,0,1,1.13-.77Z" style="fill:#bebaba"></path><path d="M230.44,185.6l.4-.35a.42.42,0,0,0,.46-.35.82.82,0,0,1,.54-.54,2.13,2.13,0,0,0,.88-.83c.26-.41.54-.62.83-.62.1,0,.22.09.35.26a.73.73,0,0,1,.21.4,3.49,3.49,0,0,1-.51,1.73l-.1.71-.18.33a1.06,1.06,0,0,0-.49.43,1.82,1.82,0,0,1-.6.55l-.25.36a1.15,1.15,0,0,0-.75.58.72.72,0,0,1-.53.46,1.32,1.32,0,0,0-.75.51,3.29,3.29,0,0,1-.61.22l-.05.26a1.76,1.76,0,0,1-.8.4,4.71,4.71,0,0,0-.81.29.9.9,0,0,1-.37.14,2,2,0,0,1-.88-.19,3.1,3.1,0,0,0-.84-.24.6.6,0,0,1-.18-.33,1.13,1.13,0,0,0-.25-.47,1.26,1.26,0,0,1-.23-.79l.1-.49a.46.46,0,0,0-.12-.25.43.43,0,0,1-.13-.25.21.21,0,0,1,.05-.15.25.25,0,0,0,0-.16,1.11,1.11,0,0,0,0-.28.92.92,0,0,1-.05-.25l.15-1.24c0-.1,0-.15-.1-.15s-.19.08-.37.25a.84.84,0,0,1-.62.25,1.25,1.25,0,0,0-.33.64,1.87,1.87,0,0,1-.51.45l-.1.16c0,.11-.16.21-.38.29a.82.82,0,0,0-.45.29l-.26.25-.48,0a4.14,4.14,0,0,0-.28.45,2,2,0,0,1-.58.64l-1.93,1.57a8.83,8.83,0,0,1-.88.51l-.16.15a6.62,6.62,0,0,1-2.86,1.35,4.32,4.32,0,0,1-1.6-.38c-.61-.26-.94-.56-1-.92l-.25-1a1.8,1.8,0,0,1-.23-1,1.15,1.15,0,0,1,.05-.41v-.15l-.05-.84q0-.3.48-.3l-.05-.69a3.81,3.81,0,0,1,.44-.8,4,4,0,0,1,.6-.8l.25-.32a.87.87,0,0,1,.36-.65,3.51,3.51,0,0,0,.61-.7,3.07,3.07,0,0,1,.86-.78l.76-.76a7.56,7.56,0,0,1,1.93-1.42,2.91,2.91,0,0,0,.62-.51,3,3,0,0,1,1.07-.67,7.77,7.77,0,0,0,1.17-.55,2,2,0,0,1,.9-.33h.2a10.14,10.14,0,0,0,1.35-.63h.15a1.61,1.61,0,0,1,.48.2h.05l.41-.2a.62.62,0,0,1,.25-.05c1,0,1.63.73,1.73,2.18,0,.3.12.45.25.45s.41-.3.72-.92a2,2,0,0,1,2-.93c.72,0,1.09.47,1.09,1.4a4.39,4.39,0,0,1-1.47,3.12,1.83,1.83,0,0,0-.16.45l-.35,1v0a.76.76,0,0,1-.22.42.82.82,0,0,0-.21.47l0,.63-.1.71a.89.89,0,0,0,.17.64,2.1,2.1,0,0,0,1.18-.68,1.6,1.6,0,0,1,.52-.51l.25-.11A2.53,2.53,0,0,1,230.44,185.6Zm-8.42,0a1.22,1.22,0,0,1,.62-.85,1.25,1.25,0,0,0,.63-.59,13.73,13.73,0,0,0,1.38-1.27c.6-.61.9-1,.9-1.12s0-.07-.1-.07h0l-.21.12-.45,0-.49,0-.35-.17-.33,0-.51-.1a1.35,1.35,0,0,0-.69.16,5.45,5.45,0,0,1-1.12.37,4,4,0,0,0-1.48.7,2.08,2.08,0,0,1-1,.49,3.79,3.79,0,0,1-1.19,1.09,1.15,1.15,0,0,0-.78.89q-.66.52-.66.6l-.18.44a2.06,2.06,0,0,1-.51.29.57.57,0,0,0-.35.53,1.43,1.43,0,0,1-.35.76,1,1,0,0,0-.29.55c0,.82.16,1.24.48,1.24a2.94,2.94,0,0,0,.85-.27,3.43,3.43,0,0,0,.75-.37,1.27,1.27,0,0,1,.41-.2l.48-.25a.45.45,0,0,1,.23-.13.5.5,0,0,0,.25-.16,1.57,1.57,0,0,1,.46-.31,1.2,1.2,0,0,0,.5-.44l1.4-.79.53-.4a2.15,2.15,0,0,0,.69-.43A1.26,1.26,0,0,1,222,185.6Z" style="fill:#bebaba"></path><path d="M236.88,184.81v-.25a3,3,0,0,1,.5-1.09,2.46,2.46,0,0,1,1.17-1.09s0,0,0,0l0-.4c.07-.07.23-.29.5-.66s.54-.54.79-.49a2.39,2.39,0,0,1,.71-.67,3,3,0,0,0,.78-.69l.94-.59a3.18,3.18,0,0,1,1.45-.66h.38a.92.92,0,0,1,.81-.5.93.93,0,0,1,.63.15.16.16,0,0,0,.1.05,1.83,1.83,0,0,0,.3-.2,1.13,1.13,0,0,1,.69-.21,9.14,9.14,0,0,1,1.14.41.88.88,0,0,1,.58-.31,1,1,0,0,1,.36.16,3.16,3.16,0,0,0,.52.26c.17.08.35.39.51.94a7.62,7.62,0,0,1,.26.93c0,.27-.23.58-.67,1a2.07,2.07,0,0,1-1.25.54c-.14,0-.31-.12-.51-.35a6.45,6.45,0,0,1-1.29-.38,3.41,3.41,0,0,0-1.09.38h-.05l-.23-.21-.2-.05h-.05a2.45,2.45,0,0,0-.2.36,2.83,2.83,0,0,1-.7.37,1.14,1.14,0,0,0-.47.27,1.92,1.92,0,0,1-.59.4,1.31,1.31,0,0,0-.62.56,3.31,3.31,0,0,1-.73.32h-.16a8.71,8.71,0,0,1-.93,1.35l-.66,1.09-.56.47c-.22.17-.33.33-.33.47a2.45,2.45,0,0,0,0,.25v.25c0,.11-.08.23-.24.37s-.24.25-.24.32l.05.56-.2.88c0,.53.38.79,1.14.79h.38l1.09-.18.89-.15.4-.08a1.56,1.56,0,0,0,.41-.28h.25l.23-.05c.07-.35.55-.65,1.44-.88a1.75,1.75,0,0,1,1-.67,3.77,3.77,0,0,0,1.45-.93h.38a1.71,1.71,0,0,0,.47-.29,3.7,3.7,0,0,1,.81-.47,1.42,1.42,0,0,0,.52-.31.82.82,0,0,1,.38-.22,1.92,1.92,0,0,1,1.09-.89l.1-.1q.41-.36.51-.36l.3.05c.17,0,.28-.1.32-.31s.31-.5.81-.86a2.57,2.57,0,0,1,.95-.55q.48,0,.48.51c0,.25-.14.39-.43.43a6,6,0,0,1,.28.73A1.05,1.05,0,0,1,253,185a.17.17,0,0,0-.1.15l-.05.46s0,0,0,0l-.1.11-.38,0-.1.16a5.8,5.8,0,0,0-1.3,1l-.5.53h-.08c-.17-.17-.3-.26-.41-.26s-.15.12-.25.36a4.5,4.5,0,0,1-1.24,1,2,2,0,0,0-.53.4l-.51.33H247a.76.76,0,0,0-.14.22,1.59,1.59,0,0,1-.44.42,2.55,2.55,0,0,0-.55.49,1,1,0,0,1-.47.32l-.45-.1a.88.88,0,0,1-.84.4,3.7,3.7,0,0,0-.44.39c-.2.2-.33.3-.4.3a1.68,1.68,0,0,1-.53-.31h-.05c-.17,0-.25.13-.25.38s-.16.39-.47.41a2.08,2.08,0,0,0-.88.25h0a1.29,1.29,0,0,1-.83-.21,2.15,2.15,0,0,0-.46-.32,8,8,0,0,1-.84.25.86.86,0,0,1-.58-.25l-1.09-.56a2.42,2.42,0,0,1-.35-.68l-.16-.21c-.54-.1-.9-.65-1.09-1.67l-.2-.61a.37.37,0,0,1,0-.23,2.61,2.61,0,0,1,.2-.77,10.18,10.18,0,0,0,.41-1.39A1.38,1.38,0,0,1,236.88,184.81Z" style="fill:#bebaba"></path><path d="M256.94,181.82l.53-.43a.63.63,0,0,0,.66-.63,1.35,1.35,0,0,1,.84-1l.3-.44a7,7,0,0,1,2.08-1,1.9,1.9,0,0,0,.58-.45.19.19,0,0,1,.1-.05l.41.1a2.75,2.75,0,0,0,.85-.18,3,3,0,0,1,1-.18l1.06-.05a1.18,1.18,0,0,1,.42.16,1.79,1.79,0,0,0,.77.15,1.43,1.43,0,0,1,1,.5,1.49,1.49,0,0,1,.47.94,2.31,2.31,0,0,1-.81,1.6,3,3,0,0,1-1.29.91,3.29,3.29,0,0,1-.66.55,1.73,1.73,0,0,0-.47.35.66.66,0,0,1-.39.24.18.18,0,0,1-.15-.06.21.21,0,0,0-.16-.06c-.26,0-.56.33-.88,1l-.46-.05a1.29,1.29,0,0,0-.55.6.51.51,0,0,1-.53.33c-.63.63-1.05.94-1.27.94a1.85,1.85,0,0,1-.35-.1.83.83,0,0,0-.21.53c0,.2-.13.32-.4.36l-.33.3-.25-.05-.51.53a1.48,1.48,0,0,0-.78.26c0,.2-.09.46-.16.77s-.1.49-.1.52c0,.49.45.73,1.35.73l1.21-.17a1.68,1.68,0,0,0,.9-.26,1.7,1.7,0,0,1,.9-.25,1.47,1.47,0,0,0,.46-.1l.25.1a1.78,1.78,0,0,1,.66-.69,1.62,1.62,0,0,1,.76-.3l.26-.15a.7.7,0,0,1,.3-.41l.2-.17a.59.59,0,0,1,.39-.21h.35l.1-.05a1.21,1.21,0,0,1,.85-.77,1,1,0,0,0,.69-.37.59.59,0,0,1,.49-.3A.94.94,0,0,0,268,185a3.19,3.19,0,0,1,.6-.55c.24-.17.4-.3.5-.38a.41.41,0,0,1,.24-.13c.1,0,.15.08.15.23s0,.23.1.23.1,0,.1-.1a1.05,1.05,0,0,0-.05-.26v-.17a.5.5,0,0,1,.41-.51l1.14-.74c0-.35.13-.56.29-.62a1,1,0,0,0,.37-.2.36.36,0,0,1,.27-.11c.22,0,.33.12.33.38l-.12.66.12.68a.76.76,0,0,1-.24.42,1.8,1.8,0,0,0-.36.81q-.13.54-.33.6h-.16a2.1,2.1,0,0,1-.72.57.78.78,0,0,0-.42.31l-.86,1c-.17.17-.31.32-.43.46s-.21.2-.28.2l-.2-.2s0-.05-.1-.05-.28.1-.32.3a1.08,1.08,0,0,1-.27.53,2.75,2.75,0,0,0-1,.66l-.15,0h-.46c-.22,0-.37.17-.45.5a.77.77,0,0,1-.73.57,1.62,1.62,0,0,0-.85.3.45.45,0,0,1-.23.1,4.27,4.27,0,0,0-.71.41l-2.13.76a1.26,1.26,0,0,1-.33.13l-.71.1a.41.41,0,0,1-.3-.2c-.1-.14-.17-.21-.2-.21l-.46.15a3.11,3.11,0,0,1-1,.16,1.11,1.11,0,0,1-.56-.18c-.21-.12-.37-.2-.48-.25-.5,0-.84-.38-1.05-1.15l-.3.06a7.12,7.12,0,0,1-.68-1.8.9.9,0,0,0-.49-.3.44.44,0,0,1-.33-.49,1.88,1.88,0,0,1,.5-1.53c.33-.27.51-.46.54-.6l.36-1.32a1.27,1.27,0,0,0,.25-.5l.58-1.07C256.55,182.59,256.7,182.3,256.94,181.82Zm5.36-1.52-.3.15q-.11.06-.6.45a6.05,6.05,0,0,1-1,.63,2.75,2.75,0,0,0-1,1.26A5.48,5.48,0,0,0,259,184a.14.14,0,0,0,.15.16l.86-.38a3.89,3.89,0,0,0,.9-.59,13.08,13.08,0,0,1,1.21-.86l.2-.2a1.74,1.74,0,0,1,.47-.37,2.45,2.45,0,0,0,.62-.52l.26-.1a1.8,1.8,0,0,1,.87-.84c.29-.1.44-.2.44-.3s-.16-.31-.48-.31a1.39,1.39,0,0,0-.61.26h-.58a1.87,1.87,0,0,0-.56.3Z" style="fill:#bebaba"></path><path d="M268.1,198.93l.25-.55.15-.64c0-.06.08-.17.24-.3s.24-.25.24-.36a10.31,10.31,0,0,1,1.24-3.21l.61-1.53a1.45,1.45,0,0,1,.47-.81c.25-.2.37-.38.37-.53s-.17-.25-.52-.44-.52-.38-.52-.55.56-.5,1.67-1a2.26,2.26,0,0,1,.76-1.49.45.45,0,0,0,.18-.36,1.78,1.78,0,0,1,.26-1l.2-.58a1.82,1.82,0,0,1,.42-.67,1.13,1.13,0,0,0,.31-.72V184c-.22,0-.53.27-.93.87-.43,0-.77.31-1,.93a1.16,1.16,0,0,1-.94.69,1.76,1.76,0,0,1-1.09.83c-.36-.21-.54-.4-.54-.55l.23-1.58c0-.35.86-1.24,2.59-2.66q.15,0,1-1l1.39-1.57c.76-.76,1.34-1.32,1.73-1.68a6.11,6.11,0,0,0,1.09-2.28,3.85,3.85,0,0,0,.87-1.88,12.06,12.06,0,0,1,.69-2.08,3.81,3.81,0,0,0,.36-1,24.55,24.55,0,0,1,1.5-3.86l.25-.83.38-.31a3.29,3.29,0,0,0,.1-.78c.19-.07.38-.44.59-1.12a4.2,4.2,0,0,1,.61-1.39,2.15,2.15,0,0,0,.4-.8,2,2,0,0,1,1.67-1.26c.12,0,.32.18.6.52a2.4,2.4,0,0,1,.51,1.19c.06.45.1.76.14.92a3.52,3.52,0,0,1,.05.64l.05.74c0,.13-.07.57-.2,1.29l-.3,1.56a.76.76,0,0,1-.52.62c-.28.1-.43.2-.43.31s.07.18.21.24.2.1.2.14a3.23,3.23,0,0,1-.29.67,1.83,1.83,0,0,1-.55.72,1.66,1.66,0,0,1,.15.35,3,3,0,0,1-.36.8,4.49,4.49,0,0,1-.6.9,2.85,2.85,0,0,0-.46,1,2.37,2.37,0,0,1-1.16,1.37,2.88,2.88,0,0,0-.62,1.17,1.49,1.49,0,0,1-.78,1l-.33.48v.1a1.71,1.71,0,0,1-.25.84,10.09,10.09,0,0,0-.51,1.08,2.08,2.08,0,0,1-.48.82,3.17,3.17,0,0,1-.35,1,2.78,2.78,0,0,0-.31.83l-.17.2q-.51.08-.51.48l.1.56s-.15.3-.46.84l-.1.5a1.16,1.16,0,0,1-.48.85,1.22,1.22,0,0,0-.45.95l-.11.61a.37.37,0,0,0,.05.15s.14-.09.31-.27l.4.12c.11,0,.2-.07.3-.21a.78.78,0,0,1,.44-.32l.1,0c.08-.24.21-.36.38-.38A.65.65,0,0,0,279,186c.12-.15.21-.22.28-.22a1.44,1.44,0,0,1,.35.21h0l.23-.11-.05-.4a.32.32,0,0,1,.23-.33.61.61,0,0,0,.33-.25l.94-.61a2.85,2.85,0,0,0,.9-.55,1.83,1.83,0,0,1,.63-.42,1.48,1.48,0,0,0,.53-.31,1.4,1.4,0,0,1,.85-.24,8.2,8.2,0,0,1,1.14-.87l.2-.27a.59.59,0,0,1,.2-.11,1,1,0,0,0,.4-.3.63.63,0,0,1,.44-.25.45.45,0,0,1,.51.5,1.57,1.57,0,0,1-.76,1.35l-.05.07c-.09.68-.3,1-.64,1-.06,0-.18.14-.35.43a2.06,2.06,0,0,0-.33-.05,2.2,2.2,0,0,1-.51.55h-.15c-.27,0-1.36.79-3.26,2.36a1.69,1.69,0,0,1-.26.21l-.48-.06a2.4,2.4,0,0,1-.3.51,3.22,3.22,0,0,0-.84.48,4.25,4.25,0,0,1-.67.46,1,1,0,0,0-.39.34.93.93,0,0,1-.48.34l-.33.31h-.16a.81.81,0,0,0-.49.25.67.67,0,0,0-.29.48.9.9,0,0,0,.23.41c.13-.1.6.41,1.42,1.53a5.58,5.58,0,0,1,1.21,3.23,2.21,2.21,0,0,1-.34,1.49c-.23.23-.34.39-.34.49a5.17,5.17,0,0,0,.07.58v.11c0,.16-.09.27-.29.3s-.31.1-.34.2v.64l-.1.3a2.32,2.32,0,0,0-.69,1.19,3.45,3.45,0,0,1-1.09.89l-.05.1.05.69a.45.45,0,0,1-.23.4,3.59,3.59,0,0,0-.62.65,2.37,2.37,0,0,1-.8.69,1,1,0,0,1-.39.69,2.9,2.9,0,0,0-.59.58l-.16.1c-.15,0-.29.22-.43.56l-.2.05a3.09,3.09,0,0,1-.7.88,2,2,0,0,0-.49.49l-.41.25a3.39,3.39,0,0,1-.94,1s-.1-.05-.2-.15h-.08c-.06,0-.12.07-.17.2a.92.92,0,0,1-.28.38,2.27,2.27,0,0,0-.41.51l-.1.1c-.22,0-.56.3-1,.89a2.16,2.16,0,0,0-.83.36c-.36.4-.6.6-.74.6s-.2-.14-.56-.41a1.62,1.62,0,0,1-.53-1.34.83.83,0,0,0-.3-.53c0-.18-.07-.45-.11-.81v-.23a1.6,1.6,0,0,1,.21-.71l.15-.53a.84.84,0,0,1,.15-.33,2.51,2.51,0,0,0,.29-.72c.13-.4.28-.79.45-1.18l.05-.25c.18-.81.34-1.21.45-1.19a6.69,6.69,0,0,0,.31-1c.1-.42.17-.77.21-1a1.1,1.1,0,0,1,.37-.66Zm5.25-4.86.1,1.09a5.71,5.71,0,0,1-.42,1,7.39,7.39,0,0,0-.54,1.41c-.09.35-.27.53-.56.53h-.25a.42.42,0,0,0-.06.21l.06.55a6.64,6.64,0,0,1-.18,1.17,1.7,1.7,0,0,1-.51,1.06l-.15.18a6.31,6.31,0,0,1-.39,1.21c-.23.54-.42,1-.57,1.29a4.07,4.07,0,0,0-.36,1.16,1.71,1.71,0,0,1-.33.9,11.68,11.68,0,0,1-.3,1.18c-.11.32-.23.73-.38,1.26a.15.15,0,0,0,.15.1c.1,0,.23-.19.38-.56a.63.63,0,0,1,.34-.14q.24,0,.42-.54l.05-.1a.58.58,0,0,0,.41-.3.55.55,0,0,1,.27-.29,1,1,0,0,0,.36-.25l.18,0a.54.54,0,0,0,.17-.28,1.21,1.21,0,0,1,.18-.36h.36l.1-.05a2,2,0,0,1,.49-1,1.65,1.65,0,0,0,.45-.57,1.32,1.32,0,0,1,.36-.5,1.13,1.13,0,0,0,.32-.66,3.73,3.73,0,0,0,.58-.84,1.57,1.57,0,0,1,.36-.51l.05-.17-.1-.31v-.1a3.1,3.1,0,0,1,.59-1,4.48,4.48,0,0,0,.75-1.35c.1-.37.2-.66.28-.88a3.61,3.61,0,0,0,.2-.74,1.82,1.82,0,0,1,.28-.69,1.14,1.14,0,0,0,.21-.72,4.21,4.21,0,0,0-.71-2s-.07-.13-.1-.3a1.24,1.24,0,0,0-.5-.6,1.32,1.32,0,0,0-.65-.34l-.2.1a.84.84,0,0,1-.32.15.46.46,0,0,0-.26.48v.11l.05.55C274,193.64,273.79,193.83,273.35,194.07Z" style="fill:#bebaba"></path><path d="M286.2,181.87l.36.16a1,1,0,0,1,.48-.74h.21c.17,0,.39-.23.66-.68l.43-.26a.64.64,0,0,0,.31.05c.1,0,.19-.06.29-.2a8.22,8.22,0,0,1,.7-.78h.1a.59.59,0,0,0,.37-.23.75.75,0,0,1,.57-.23l.87-.23a3.23,3.23,0,0,1,.46-.1c.15,0,.52.26,1.11.92a3,3,0,0,1,.89,1.94.6.6,0,0,1-.56.64l-.13.1v.51l-.43.93a.89.89,0,0,1-.43.49c-.15.27-.26.45-.33.55l-.35,0-.15.16v.63a6.55,6.55,0,0,0-.66,1.33,5,5,0,0,0-.44,1.31q0,.48.21.48a.44.44,0,0,0,.3-.13,4.12,4.12,0,0,1,.42-.29,1.22,1.22,0,0,0,.39-.34,1.07,1.07,0,0,1,.53-.32,2,2,0,0,0,.77-.52c.23-.25.4-.42.5-.51a2.16,2.16,0,0,0,.33-.34c.12-.14.2-.21.23-.21a1.88,1.88,0,0,0,.48-.11,2.27,2.27,0,0,1,.1-.4l.61-.31,1.47-1.31.2-.26a2.34,2.34,0,0,0,.51-.15,1.66,1.66,0,0,1,.68-1c0-.06.09-.11.26-.15a1.85,1.85,0,0,1,.51-.65,1.73,1.73,0,0,0,.52-.59l.59-.48a.63.63,0,0,0,.35-.31,13.69,13.69,0,0,1,1.64-1.33,2.34,2.34,0,0,1,1-.16,1.41,1.41,0,0,1,1.15.54,3.23,3.23,0,0,0,1,.83,1.1,1.1,0,0,1,.52,1.06,7.75,7.75,0,0,1-1.14,2.81,16.6,16.6,0,0,0-.77,2.68c0,.33-.09.52-.22.57s-.21.11-.21.18v.1c0,.4.07.61.21.61s.24-.09.42-.26a3.26,3.26,0,0,1,1.07-.55l.23.05a4,4,0,0,1,1-1.21,1.15,1.15,0,0,0,.51-.45.81.81,0,0,1,.62-.4.77.77,0,0,0,.46-.12c0-.41.35-.87,1-1.37a4.46,4.46,0,0,1,1.13-.76c.17,0,.3.12.4.38a1.41,1.41,0,0,0,.32.52c.11.09.16.17.16.24v.45a.41.41,0,0,1-.33.43q-.25.57-.45.66l-.46-.05a3.39,3.39,0,0,0-.21.28c-.06.09-.1.12-.12.1a2.43,2.43,0,0,0-.72.67,13.23,13.23,0,0,1-.92,1l-.1.15a1.47,1.47,0,0,1-.38.21l-.46.38a1.49,1.49,0,0,0-.3-.16s-.11.07-.22.21a3.25,3.25,0,0,1-.65.52,2.36,2.36,0,0,0-.75.72l-.4.4-.54.08c-.05,0-.13.08-.25.23l-.45.58a1.22,1.22,0,0,1-1,.43c-.1,0-.23-.09-.39-.26s-.32-.33-.46-.46a14.35,14.35,0,0,1-1-1.14,10.18,10.18,0,0,1-.75-1l.15-.89-.05-.61a1.2,1.2,0,0,1,.24-.54q.24-.37.24-.39l-.05-1a.74.74,0,0,0,.11-.16l.35-.58a3.15,3.15,0,0,1-.05-.56l.1-.83a1.81,1.81,0,0,0-.8.82,1,1,0,0,1-.9.62c-.32.58-.56.86-.73.84a.94.94,0,0,0-.16.2l-.35.2-.43,0-.15.64a2.08,2.08,0,0,0-.73.54,2.09,2.09,0,0,1-.52.5l-.43.4h-.4a1.63,1.63,0,0,1-.79,1.14l-.2.26-.46-.05c-.17.54-.38.87-.63,1s-.68.27-1.18.79-.85.79-1.05.79c-1.47,0-2.67-.92-3.58-2.77a4.12,4.12,0,0,0-.24-.38,1.5,1.5,0,0,1-.19-.86,2.33,2.33,0,0,1,.27-1.34,8,8,0,0,0,.68-1.33c.28-.65.49-.94.62-.85a.64.64,0,0,0,.05-.31,1.4,1.4,0,0,0,.41-.73.09.09,0,0,0-.1-.1,1,1,0,0,0-.31.15l-.35.15a.46.46,0,0,0-.33.2.91.91,0,0,1-.36.29l-.41.25h-.08c-.1-.11-.17-.16-.2-.16a1.93,1.93,0,0,1-.25.51l-.31.05c-.37.39-.61.58-.71.58a1.37,1.37,0,0,1-.46-.17q-.36-.18-.36-.36l.18-1v-.45s.07-.1.2-.21.17-.18.41-.54A1,1,0,0,1,286.2,181.87Z" style="fill:#bebaba"></path><path d="M313.46,186.13V186a2.09,2.09,0,0,1,.05-.56,2.16,2.16,0,0,1-.15-.74,6.29,6.29,0,0,1,.25-.71l.23-.78a3.1,3.1,0,0,1,.2-.48,3.17,3.17,0,0,1-.15-.46,1.4,1.4,0,0,1,.33-1,3.33,3.33,0,0,0,.56-1.07l.5-1.55.84-2a3.8,3.8,0,0,1,.24-.41c.14-.22.26-.41.35-.57s.23-.39.4-.7l.25,0a.26.26,0,0,0,.1-.2,2.5,2.5,0,0,0-.1-.4l.89-1.48.53-1.09a1.27,1.27,0,0,1,.56-.55,2.84,2.84,0,0,1,.88-1.14,3.82,3.82,0,0,1,.56-1l.48-.05a2.27,2.27,0,0,1,.26-.54l.05-.5c0,.1,0,.07.13-.09s.21-.46.38-.9l.68-.79.2-.35a7.73,7.73,0,0,0,.41-.69,1.32,1.32,0,0,0,.63-.55l.53-.44c0-.18.17-.6.61-1.24a3.6,3.6,0,0,0,.79-.45l.35-.11a1.23,1.23,0,0,1,.64-1.21l.3-.21a2.58,2.58,0,0,1,.46-.2l.17-.05a2.24,2.24,0,0,1,.72-.1,2.41,2.41,0,0,1,1.69.7,2.08,2.08,0,0,1,.76,1.58,1.07,1.07,0,0,1-.38.74l-.1.2c-.23.93-.4,1.39-.51,1.39a.46.46,0,0,0-.27.16,4.32,4.32,0,0,1-.11.93q-.45.08-.45,1.14a2,2,0,0,1-.37.52,2.56,2.56,0,0,0-.49,1c-.12.43-.25.64-.38.64h-.28l.07.38a1,1,0,0,1-.34.7,1.42,1.42,0,0,0-.42.72,2,2,0,0,1-.6.92l-.26.4a3.51,3.51,0,0,1-.4.53,2.34,2.34,0,0,0-.44.87l-.65,1.21c-.46.83-.81,1.23-1,1.2a11.5,11.5,0,0,1-.31,1.14.69.69,0,0,1-.35.27.9.9,0,0,0-.43.45,1.73,1.73,0,0,1-.33.47l-.46.94a1,1,0,0,0-.58.65q-.4.1-.51.69a1.59,1.59,0,0,0-.25.46l-.89.88a1.53,1.53,0,0,0-.74,1.1.6.6,0,0,1-.66.63,3.54,3.54,0,0,1-1.26-.38h-.05a2.41,2.41,0,0,1-.36.78l.1.69c0,.08-.13.61-.4,1.59a1.51,1.51,0,0,1,.2.54l-.05.55.13.69c.08.56.28.83.61.83l.6.11a4.15,4.15,0,0,0,.64-.38l.93-.51s.05,0,.05.05a1.14,1.14,0,0,0,.41.1c.17,0,.25-.13.25-.41v-.33a.66.66,0,0,1,.37-.3.75.75,0,0,0,.39-.23c.12-.11.21-.17.28-.17h.25c.26,0,.39-.3.39-.89a1.53,1.53,0,0,0,.25-.2h.3c.14,0,.29-.17.45-.5a2.91,2.91,0,0,1,.34-.6,1.69,1.69,0,0,0,.63-.15c.54-1,1-1.47,1.24-1.47h.15a1.28,1.28,0,0,0,.47-.72.49.49,0,0,1,.26-.42,1.62,1.62,0,0,0,.39-.25c.12-.1.19-.15.23-.15.25,0,.38.09.38.28l-.08.7.18.77a1,1,0,0,1-.22.39,1.07,1.07,0,0,0-.21.64c0,.5-.09.76-.26.79a.63.63,0,0,0-.41.34,1.48,1.48,0,0,1-.55.53,1.6,1.6,0,0,0-.58.7l-.43.1-.25.16a1.83,1.83,0,0,1-.65,1,2.83,2.83,0,0,0-.85,1.06c-.05,0-.08,0-.08.05l-.4-.05a1,1,0,0,1-.46.49.71.71,0,0,0-.38.29,1.16,1.16,0,0,1-.54.36.94.94,0,0,0-.5.36.39.39,0,0,1-.3.23.66.66,0,0,0-.38.19.49.49,0,0,1-.3.16,2.22,2.22,0,0,1-.36-.05h-.1a1.39,1.39,0,0,1-.71.31.86.86,0,0,0-.48.1,1.13,1.13,0,0,0-.47-.15,2.64,2.64,0,0,1-.72-.26,3.31,3.31,0,0,1-.53.1c-.29,0-.65-.28-1.09-.85a2.71,2.71,0,0,1-.66-1.66l-.29-.39a1.22,1.22,0,0,1-.29-.8v-.25l.05-.31v-.48l.05-.15c.25,0,.38-.07.38-.1Zm5.14-6.71.54-.31a2.29,2.29,0,0,1,.65-1c.38-.38.64-.58.79-.58h.2a.93.93,0,0,1,.08-.35,1.28,1.28,0,0,0,.07-.48q0-.15.69-.84l.2-.45a2,2,0,0,1,1.14-1.09c.24-.49.42-.74.53-.74l.21-.05a1.53,1.53,0,0,1,.4-.69l.1-.15v-.4a1.71,1.71,0,0,1,.35-.42,2.69,2.69,0,0,0,.49-.69,1.19,1.19,0,0,1,.42-.49,1,1,0,0,0,.37-.63l.4-.05a1.21,1.21,0,0,1,0-.43l.05-.26c.09-.2.38-.73.89-1.6l.41-.93a.59.59,0,0,1,.21-.37.81.81,0,0,0,.22-.62l.2-.84c0-.39-.07-.58-.2-.58a2,2,0,0,1-.47.25c-.15.05-.28.36-.42.91-.51.12-.8.36-.87.73a1.55,1.55,0,0,1-.63.92l-.17.31a1.1,1.1,0,0,1-.48.58,2.88,2.88,0,0,0-.82,1c-.84,1.16-1.31,1.79-1.39,1.87l-.25.31-.38-.05c.06.27.1.42.1.45a.41.41,0,0,1-.15.3.74.74,0,0,0-.23.34,1.63,1.63,0,0,1-.31.47,2.46,2.46,0,0,0-.41.86,1.57,1.57,0,0,1-.35.7l-.35-.05c-.22.13-.33.27-.33.4l.07.36a.41.41,0,0,1-.13.24,1.21,1.21,0,0,0-.27.54,7.14,7.14,0,0,1-.63,1.23,7.49,7.49,0,0,0-.8,1.75,3.08,3.08,0,0,1-.57,1.18.21.21,0,0,0,.15,0C318.19,180.1,318.4,179.87,318.6,179.42Z" style="fill:#bebaba"></path><path d="M329.2,191.36l.15-.31a1.36,1.36,0,0,1,.18-.28,4.77,4.77,0,0,0,.39-.72,1.42,1.42,0,0,1,1.15-.77,1,1,0,0,1,.71-.26c.41,0,.89.39,1.45,1.16a4.19,4.19,0,0,1,.84,1.45,1.45,1.45,0,0,1-.56.94A2.15,2.15,0,0,1,333,194a4.56,4.56,0,0,0-.62.89,1,1,0,0,1-.33.44s-.29.43-.88,1.2-1,1.16-1.3,1.16l-1.09-.38c-.22,0-.33-.12-.33-.26a1.85,1.85,0,0,1,.71-1.33,2.21,2.21,0,0,0,.81-1.33,3.29,3.29,0,0,1-1-2.38A2.7,2.7,0,0,1,329.2,191.36Z" style="fill:#bebaba"></path><path d="M373.61,185.6l.4-.35a.43.43,0,0,0,.46-.35.82.82,0,0,1,.54-.54,2.12,2.12,0,0,0,.87-.83c.27-.41.55-.62.83-.62.11,0,.22.09.36.26a.77.77,0,0,1,.2.4,3.49,3.49,0,0,1-.51,1.73l-.1.71-.17.33a1.1,1.1,0,0,0-.5.43,1.76,1.76,0,0,1-.59.55l-.26.36a1.17,1.17,0,0,0-.75.58.69.69,0,0,1-.53.46,1.32,1.32,0,0,0-.75.51,3.17,3.17,0,0,1-.6.22l-.05.26a1.81,1.81,0,0,1-.8.4,4.15,4.15,0,0,0-.81.29.9.9,0,0,1-.37.14,2,2,0,0,1-.89-.19,3.14,3.14,0,0,0-.83-.24.5.5,0,0,1-.18-.33,1.27,1.27,0,0,0-.25-.47,1.2,1.2,0,0,1-.23-.79l.1-.49a.43.43,0,0,0-.13-.25.5.5,0,0,1-.13-.25.18.18,0,0,1,.06-.15.25.25,0,0,0,.05-.16,1.11,1.11,0,0,0-.05-.28.69.69,0,0,1-.06-.25l.16-1.24c0-.1,0-.15-.1-.15s-.19.08-.37.25a.88.88,0,0,1-.62.25,1.12,1.12,0,0,0-.33.64,2.22,2.22,0,0,1-.51.45l-.1.16a.58.58,0,0,1-.38.29.89.89,0,0,0-.46.29l-.25.25-.48,0a2.91,2.91,0,0,0-.28.45,2.1,2.1,0,0,1-.58.64l-1.93,1.57a9.2,9.2,0,0,1-.89.51l-.15.15a6.64,6.64,0,0,1-2.87,1.35,4.28,4.28,0,0,1-1.59-.38c-.61-.26-.94-.56-1-.92l-.26-1a1.8,1.8,0,0,1-.22-1,1,1,0,0,1,.05-.41v-.15l-.05-.84q0-.3.48-.3l-.05-.69a3.33,3.33,0,0,1,.44-.8,3.67,3.67,0,0,1,.6-.8l.25-.32a.82.82,0,0,1,.35-.65,3.22,3.22,0,0,0,.61-.7,3.14,3.14,0,0,1,.87-.78l.76-.76a7.23,7.23,0,0,1,1.93-1.42,2.91,2.91,0,0,0,.62-.51,3,3,0,0,1,1.06-.67,7.77,7.77,0,0,0,1.17-.55,2,2,0,0,1,.9-.33h.21a11.2,11.2,0,0,0,1.34-.63h.15a1.74,1.74,0,0,1,.49.2H367l.4-.2a.67.67,0,0,1,.26-.05c1.05,0,1.62.73,1.72,2.18,0,.3.12.45.26.45s.41-.3.72-.92a2,2,0,0,1,2-.93c.73,0,1.09.47,1.09,1.4a4.39,4.39,0,0,1-1.47,3.12,1.49,1.49,0,0,0-.15.45l-.36,1v0a.8.8,0,0,1-.21.42.79.79,0,0,0-.22.47l.05.63-.1.71a.84.84,0,0,0,.18.64,2,2,0,0,0,1.17-.68c.25-.31.42-.48.52-.51l.26-.11A2.34,2.34,0,0,1,373.61,185.6Zm-8.42,0a1.19,1.19,0,0,1,.62-.85,1.22,1.22,0,0,0,.62-.59,13.73,13.73,0,0,0,1.38-1.27c.6-.61.9-1,.9-1.12s0-.07-.1-.07h-.05l-.2.12-.46,0-.48,0-.36-.17-.33,0-.5-.1a1.42,1.42,0,0,0-.7.16,5.3,5.3,0,0,1-1.11.37,4,4,0,0,0-1.49.7,2.1,2.1,0,0,1-1,.49,3.92,3.92,0,0,1-1.19,1.09,1.16,1.16,0,0,0-.79.89q-.66.52-.66.6l-.18.44a1.83,1.83,0,0,1-.5.29.57.57,0,0,0-.36.53,1.42,1.42,0,0,1-.34.76,1,1,0,0,0-.29.55c0,.82.16,1.24.48,1.24a2.94,2.94,0,0,0,.85-.27,3.43,3.43,0,0,0,.75-.37,1.19,1.19,0,0,1,.4-.2l.49-.25a.42.42,0,0,1,.22-.13.53.53,0,0,0,.26-.16,1.37,1.37,0,0,1,.45-.31,1.3,1.3,0,0,0,.51-.44l1.39-.79.54-.4a2,2,0,0,0,.68-.43A1.31,1.31,0,0,1,365.19,185.6Z" style="fill:#bebaba"></path><path d="M382.68,179.85l.37-.1.16-.33A6.66,6.66,0,0,0,385,178a.59.59,0,0,1,.23-.2,1.54,1.54,0,0,0,.38-.36,3.07,3.07,0,0,1,2.23-.93c1,0,1.56.61,1.62,1.85l.16.38a10.38,10.38,0,0,1,.57,1.44,6.67,6.67,0,0,1,.36,1.35,2.5,2.5,0,0,1-.43,1.36,10.25,10.25,0,0,0-1.69,1.9l-.26.18a4.48,4.48,0,0,1-.53.91q-.51.18-.51.39v.45s0,.1-.11.2a4.35,4.35,0,0,0-.32.59l-.2.3a1.14,1.14,0,0,0-.21.42,1.71,1.71,0,0,1-.29.57.81.81,0,0,0-.19.41c0,.25.33.38,1,.38a1.55,1.55,0,0,0,.38-.16l.36.11a.77.77,0,0,0,.25-.17,1.64,1.64,0,0,1,.62-.27,2.22,2.22,0,0,0,.74-.3,3.59,3.59,0,0,1,.76-.35,2.87,2.87,0,0,0,.85-.5,2.75,2.75,0,0,1,.79-.49,2.26,2.26,0,0,0,.74-.47,6.84,6.84,0,0,1,.77-.6,9.17,9.17,0,0,0,1.37-1.22,3.11,3.11,0,0,1,.84-.53,3.06,3.06,0,0,0,.44-.67c.26-.45.56-.67.9-.67s.54.17.54.51a.76.76,0,0,1-.26.53v.15l.05.41a.42.42,0,0,1,.05.22c0,.07-.06.17-.19.31a1.07,1.07,0,0,0-.26.52.59.59,0,0,1-.49.42q-.15.56-.39.63a2,2,0,0,0-.67.51,10.86,10.86,0,0,1-1.22,1,8.4,8.4,0,0,0-1.07.9c-.2.21-.33.32-.4.32a.68.68,0,0,1-.2-.1.49.49,0,0,0-.2-.1c-.1,0-.17.11-.2.35l-.11.25a1.51,1.51,0,0,1-.38.21l-.15-.05h-.1c-.2,0-.3.07-.3.22l.15.26v0c0,.23-.14.35-.41.35a5.65,5.65,0,0,0-1.62.94l-.74.15-.6.33a1.3,1.3,0,0,0-.38-.18l-.41.13-.73.05s-.33-.17-.93-.5a2.15,2.15,0,0,1-1.07-1,7.64,7.64,0,0,0-.46-1,1.89,1.89,0,0,1-.28-.73,5.35,5.35,0,0,1,.2-1.73,4.34,4.34,0,0,0,.25-.78,1.34,1.34,0,0,1,.3-.54,2.38,2.38,0,0,0,.39-1,12.78,12.78,0,0,1,1-1.8,2.24,2.24,0,0,0,.43-.81l.33-.46a1.2,1.2,0,0,0,.16-.39c.06-.23.15-.36.25-.4a1.18,1.18,0,0,0,.2-.45c0-.49-.22-.74-.66-.74-.08,0-.17.09-.28.27a1.5,1.5,0,0,1-.69.52,2.82,2.82,0,0,0-.68.38,2.12,2.12,0,0,1-.54.32,1.76,1.76,0,0,0-.72.59l-.43.2c-.14.33-.26.5-.36.54s-.41.12-.94.25a1.74,1.74,0,0,0-.25.3.67.67,0,0,1-.58.28,6.26,6.26,0,0,0-.61.71,1.85,1.85,0,0,0-.53.21l-.51.12a1.91,1.91,0,0,0-.44.48,1.08,1.08,0,0,1-.91.33c-.25,0-.38-.2-.38-.61a2.46,2.46,0,0,1,.88-2,3.26,3.26,0,0,1,1.28-.79.56.56,0,0,0,.51-.3.81.81,0,0,1,.49-.42,2.85,2.85,0,0,0,.91-.74,2.79,2.79,0,0,1,1.13-.77Z" style="fill:#bebaba"></path><path d="M405.18,169.25l.35-.1.26-.25h0l.23.1h.05a2.38,2.38,0,0,0,1.08-.24,5.89,5.89,0,0,1,.79-.35,1.51,1.51,0,0,0,.4-.15.28.28,0,0,1,.12,0l.41,0c.14,0,.32-.24.55-.72a2.81,2.81,0,0,1,.77-1,3.31,3.31,0,0,0,.86-1.25,1.59,1.59,0,0,0,.23-.39c.09-.18.15-.26.2-.26.26,0,.46-.16.61-.49.51-.59.92-.88,1.24-.88s.72.4.89,1.21l.25,1s0,.14-.12.37a1.6,1.6,0,0,0-.12.68,1.83,1.83,0,0,1,0,.46.68.68,0,0,0,0,.26c0,.14.14.2.43.2a1.49,1.49,0,0,0,.56-.2l.15,0a.89.89,0,0,0,.43.15,6,6,0,0,0,.72-.25,6.19,6.19,0,0,1,.85-.28,3.11,3.11,0,0,0,.61-.2h.31l.2.07a1.15,1.15,0,0,0,.42-.21,2.56,2.56,0,0,1,1.2-.27l.36-.15h.1c.55,0,.83.25.83.74a1.33,1.33,0,0,1-.24.53,3.57,3.57,0,0,0-.39.86l-1.17,1.47a1.55,1.55,0,0,1-1.16.76c-.07,0-.28-.23-.64-.68,0,0,0,0-.1,0a1.5,1.5,0,0,0-.53.1,1.67,1.67,0,0,1-.46.1c-.05,0-.49.12-1.34.38l-.61.1a2.31,2.31,0,0,0-.48.1l-1.29.25a2.29,2.29,0,0,0-1,1.25s-.09.11-.26.22l-1.14,2.08a1,1,0,0,0-.74.66l-.1.15a1,1,0,0,0-.51.32,2.39,2.39,0,0,1-.43.42l-.45.68c-.19.24-.38.5-.56.78a3.06,3.06,0,0,0-.41.88,1.59,1.59,0,0,1-.2.55.39.39,0,0,0-.08.28l-.07.2a.92.92,0,0,0-.31.69l.1.4c-.24.81-.35,1.24-.35,1.29a1.23,1.23,0,0,0,.05.28v.16a3.39,3.39,0,0,1-.41,1.39l.05.41-.15,1.14a4.17,4.17,0,0,0,.15.83c-.07.07-.1.12-.1.15a2.44,2.44,0,0,0,.75,1.56,3.94,3.94,0,0,1,.75,2.65,2.13,2.13,0,0,1-.08.45,3.78,3.78,0,0,0-.1.63,1.05,1.05,0,0,1-.39.67,1.06,1.06,0,0,1-.63.33c-.89,0-1.56-.65-2-1.95a10.91,10.91,0,0,1-.66-2.51l0-1-.15-.51.15-2.23-.1-.53.58-2.18v-.79a2.06,2.06,0,0,1,.36-.4s0-.05-.11-.05-.23.1-.4.3a3.34,3.34,0,0,1-.64.59l-.2.35a.52.52,0,0,0-.2-.1,5.3,5.3,0,0,0-.84,1.19,1.12,1.12,0,0,0-.84.61.93.93,0,0,1-.84.53l-.1.05c-.07.49-.3.74-.71.74l-.1.05c-.25.57-.52.85-.79.83a1.64,1.64,0,0,1-1.24,1,1,1,0,0,1-.45.46,1.78,1.78,0,0,0-.42.28.37.37,0,0,1-.22.13c-.22,0-.33-.24-.33-.71a.8.8,0,0,1,.16-.45.79.79,0,0,0,.17-.34s-.09-.13-.26-.3c0-.53.14-.86.41-1a1.39,1.39,0,0,0,.61-.59.78.78,0,0,1,.5-.43c.26-.08.38-.19.38-.33s.23-.35.66-.71a5.88,5.88,0,0,0,1-.92q.3-.39.51-.39l.1-.11q0-.63.48-.63l.25-.15.06-.2.15-.11h.2l.13-.1a1.25,1.25,0,0,1,.59-1,13.2,13.2,0,0,0,2-2,11.28,11.28,0,0,0,1.62-2.09,8.52,8.52,0,0,1,.65-1.23,3.41,3.41,0,0,0,.52-1.45,1.37,1.37,0,0,0-.15-.21l-1.09.54c0-.06-.17-.13-.51-.23a2.1,2.1,0,0,0-.56.45c-.12.16-.21.23-.28.23l-.35-.05-1.12.13a5,5,0,0,0-2.25.61l-1,.3h-.23a1.3,1.3,0,0,0-.61.25l-.58-.05a3,3,0,0,1-1.19.43,1.57,1.57,0,0,1-.31-.05l-2.58.71a6.56,6.56,0,0,0-1.37,1l-.21.05c-.16,0-.36-.19-.59-.57a2,2,0,0,1-.34-1c0-1.68,1.43-2.65,4.31-2.92l1-.41h0l.27.11h.11a1.26,1.26,0,0,0,.48-.19,6.37,6.37,0,0,1,1.47-.47l1-.28.33,0a1.12,1.12,0,0,0,.57-.2,2.36,2.36,0,0,1,1-.3,4.43,4.43,0,0,0,.9-.18l.41-.11a1.36,1.36,0,0,0,.41-.17,1.7,1.7,0,0,1,.83-.18A1.58,1.58,0,0,1,405.18,169.25Z" style="fill:#bebaba"></path><path d="M413.36,183.37l.4-.36h.16c.11,0,.29-.12.53-.38l.25-.1a2.16,2.16,0,0,1,.89-.88l.41-.31a.85.85,0,0,1,.29-.18,2.26,2.26,0,0,0,.61-.49c.28-.28.5-.42.67-.42a1.53,1.53,0,0,1,.41.05,1.57,1.57,0,0,1,.61-.59,2.58,2.58,0,0,0,.73-.7l.33-.15a2.88,2.88,0,0,0,.72-.52,1.15,1.15,0,0,1,.83-.32,2.3,2.3,0,0,1,1.53.75,2.05,2.05,0,0,1,.8,1.43l-.43,2q-.44,2.17-1,2.28l-.1.53c-.24.17-.36.31-.36.41l.15.61c0,.08-.09.21-.27.38,0,0-.05.05-.05.15v1a.52.52,0,0,1-.36.45.48.48,0,0,0,.15.11A1,1,0,0,1,422,188l.4.05.56-.55a3,3,0,0,0,.49-.24,7.29,7.29,0,0,1,1.08-.5l3.31-2.53c.46-.46.81-.69,1-.69s.38.16.38.48a1.86,1.86,0,0,1-.21.93,4.37,4.37,0,0,0-.4.89,1.61,1.61,0,0,1-.41.72,1.84,1.84,0,0,0-.4.44,3,3,0,0,1-.82.7,7.47,7.47,0,0,0-1.14.92,5.55,5.55,0,0,1-.77.68l-1.09.78-.16.26a2.62,2.62,0,0,1-.47.21,3.15,3.15,0,0,0-.74.42l-.46.25a1.07,1.07,0,0,1-.49.13.9.9,0,0,0-.6.29c-.17.18-.3.27-.4.27l-.39,0-.5.15a1.76,1.76,0,0,1-1.05-.52,1.45,1.45,0,0,1-.63-1.1v-.16l.06-.35a2.63,2.63,0,0,0-.16-.52,3.52,3.52,0,0,1-.15-.47l.05-.35-.05-.16a2.38,2.38,0,0,1,.1-.86,1.35,1.35,0,0,0,.15-.49c0-.21.07-.39.11-.52l.12-.64a.79.79,0,0,1,.26-.4c0-.14.1-.36.2-.69l.1-.45.26-.36a.9.9,0,0,0,.24-.54,1.71,1.71,0,0,1,.26-.72,1.9,1.9,0,0,0,.23-.46.27.27,0,0,0-.3-.3,2.16,2.16,0,0,0-.64.4l-.45-.15s-.13.08-.28.25-.08.12-.23.15a.8.8,0,0,0-.43.38l-.21,0-.33-.15h-.1c-.17,0-.27.19-.3.56a1.27,1.27,0,0,1-.74.53l-.55.16a.65.65,0,0,0-.41.45,1.39,1.39,0,0,1-.51.65,1.29,1.29,0,0,1-.5.29c-.48,0-.71-.26-.71-.79l.2-1.19Zm10.95-12.68-.15-1v-.16c0-.79.27-1.23.81-1.31.12,0,.47-.13,1.06-.33a1.72,1.72,0,0,1,1,.8,2.21,2.21,0,0,1,.5,1.22.87.87,0,0,1-.08.23,2.48,2.48,0,0,0-.1.67,1.19,1.19,0,0,1-.49.87,1.64,1.64,0,0,1-1,.36,1.55,1.55,0,0,1-.9-.49A1.59,1.59,0,0,1,424.31,170.69Z" style="fill:#bebaba"></path><path d="M434.43,180.05l.36-.63a2.7,2.7,0,0,1,.39-.47,3.24,3.24,0,0,0,.52-1.25,3.72,3.72,0,0,1,.63-1.38,1.27,1.27,0,0,1,1-.38,2.21,2.21,0,0,1,1,.37,4.18,4.18,0,0,1,1.22,2.22,9.86,9.86,0,0,1,.59,2.61,2.25,2.25,0,0,0,.18.77,5,5,0,0,1,.23.72,3,3,0,0,0-.2.49l0,1-.31.83v.61a2.1,2.1,0,0,0-.3.63.52.52,0,0,0,.1.31,4.28,4.28,0,0,0,1.45-.83,1.05,1.05,0,0,1,.49-.39,2.73,2.73,0,0,0,.8-.66l.48-.25c.17-.2.31-.38.43-.55a1,1,0,0,1,.41-.34,2.74,2.74,0,0,0,.57-.35,6.36,6.36,0,0,1,1-.59l.25-.3a2.62,2.62,0,0,1,.9-.68,3.61,3.61,0,0,1,.57-.26c.11,0,.24.16.36.47a2.38,2.38,0,0,1,.19.93,1.16,1.16,0,0,1-.49.85,5.66,5.66,0,0,0-.67.62,1.71,1.71,0,0,1-.81.35s-.32.37-.84,1l-.51.3-.25.33c0,.07-.26.14-.68.21,0,0-.06.08-.12.25s-.24.29-.54.36a7.12,7.12,0,0,0-.94.93l-.53.1a1.94,1.94,0,0,1-.25.59q-.61.15-.69.51l-.25.1-.1.07a2.63,2.63,0,0,1-1.14.56l-.58.15-.2.31q0,.12-.63.33a2.26,2.26,0,0,0-.92.5l-.43.33a2.71,2.71,0,0,0-1,.56h-.35a2.4,2.4,0,0,0-1.12.52,2.35,2.35,0,0,1-1.21.52,3.86,3.86,0,0,1-2-.37,3.09,3.09,0,0,1-.89-.91A9.21,9.21,0,0,0,429,191a.91.91,0,0,1-.29-.53c0-.12.08-.23.24-.35a2.17,2.17,0,0,0,.52-.73c.18-.36.66-.59,1.42-.69a1.86,1.86,0,0,0,.36-.15,1.2,1.2,0,0,1,.52-.16c.17,0,.38.16.64.46,0,0,0,.05.1.05l.4-.05a.84.84,0,0,0,.38.2,2,2,0,0,0,1.29-.61l.1,0h.21s.13-.14.25-.43l.43-.88.89-1.15v-.25a2.28,2.28,0,0,1,.15-.46v-.38c0-.15.1-.24.3-.29s.31-.14.31-.31l-.05-.21a.82.82,0,0,1-.21-.43l.26-.5-.05-.54.1-.2a2.8,2.8,0,0,1-.1-.4l.1-.64s-.05-.18-.14-.48-.17-.46-.22-.46-.42.27-1,.79a5.37,5.37,0,0,0-1,1.11,1.39,1.39,0,0,1-.64.6,1.64,1.64,0,0,0-.68.6.66.66,0,0,1-.43.38l-1.7,1.36-1.85,1.37c-.14.16-.22.23-.25.23-.63,0-.94-.34-.94-1a3.55,3.55,0,0,1,.38-1.19l.26-.15c.06,0,.09-.06.09-.08s0,0-.05,0l.15.1h.06a8.88,8.88,0,0,1,1.21-.74,1,1,0,0,0,.51-.55l1.07-.76c.27-.21.68-.58,1.24-1.12A7.1,7.1,0,0,0,434.43,180.05Z" style="fill:#bebaba"></path><path d="M453,169.25l.35-.1.26-.25h.05l.22.1h.06a2.38,2.38,0,0,0,1.08-.24,5.89,5.89,0,0,1,.79-.35,1.68,1.68,0,0,0,.4-.15.28.28,0,0,1,.12,0l.41,0c.14,0,.32-.24.55-.72a2.81,2.81,0,0,1,.77-1,3.43,3.43,0,0,0,.86-1.25,1.59,1.59,0,0,0,.23-.39c.09-.18.15-.26.2-.26.26,0,.46-.16.61-.49.51-.59.92-.88,1.24-.88s.72.4.89,1.21l.25,1s0,.14-.12.37a1.6,1.6,0,0,0-.12.68,1.83,1.83,0,0,1,0,.46.68.68,0,0,0,0,.26c0,.14.14.2.43.2a1.49,1.49,0,0,0,.56-.2l.15,0a.89.89,0,0,0,.43.15,6.81,6.81,0,0,0,.72-.25,6.19,6.19,0,0,1,.85-.28,3.11,3.11,0,0,0,.61-.2h.3l.21.07a1.23,1.23,0,0,0,.42-.21,2.56,2.56,0,0,1,1.2-.27l.35-.15h.11c.55,0,.83.25.83.74a1.33,1.33,0,0,1-.24.53,3.57,3.57,0,0,0-.39.86l-1.17,1.47a1.55,1.55,0,0,1-1.16.76c-.07,0-.28-.23-.64-.68,0,0,0,0-.1,0a1.5,1.5,0,0,0-.53.1,1.67,1.67,0,0,1-.46.1c-.05,0-.5.12-1.34.38l-.61.1a2.31,2.31,0,0,0-.48.1l-1.29.25a2.34,2.34,0,0,0-1,1.25s-.08.11-.25.22l-1.14,2.08a1,1,0,0,0-.74.66l-.1.15a1,1,0,0,0-.51.32,2.39,2.39,0,0,1-.43.42l-.46.68c-.18.24-.37.5-.55.78a2.82,2.82,0,0,0-.41.88,1.86,1.86,0,0,1-.2.55.39.39,0,0,0-.08.28l-.08.2a1,1,0,0,0-.3.69l.1.4c-.24.81-.35,1.24-.35,1.29a1.23,1.23,0,0,0,0,.28v.16a3.39,3.39,0,0,1-.41,1.39l.05.41-.15,1.14a4.17,4.17,0,0,0,.15.83c-.07.07-.1.12-.1.15a2.44,2.44,0,0,0,.75,1.56,3.94,3.94,0,0,1,.75,2.65,2.13,2.13,0,0,1-.08.45,3.78,3.78,0,0,0-.1.63,1.05,1.05,0,0,1-.39.67,1.06,1.06,0,0,1-.63.33c-.89,0-1.56-.65-2-1.95a10.91,10.91,0,0,1-.66-2.51l.05-1-.15-.51.15-2.23-.1-.53.58-2.18v-.79a2.06,2.06,0,0,1,.36-.4s0-.05-.11-.05-.23.1-.4.3a3.34,3.34,0,0,1-.64.59l-.2.35a.52.52,0,0,0-.2-.1,5.3,5.3,0,0,0-.84,1.19,1.11,1.11,0,0,0-.84.61.93.93,0,0,1-.84.53l-.1.05c-.07.49-.3.74-.71.74l-.1.05c-.26.57-.52.85-.79.83a1.64,1.64,0,0,1-1.24,1,1,1,0,0,1-.45.46,1.78,1.78,0,0,0-.42.28.37.37,0,0,1-.23.13c-.22,0-.33-.24-.33-.71a.82.82,0,0,1,.17-.45.73.73,0,0,0,.16-.34s-.08-.13-.25-.3c0-.53.14-.86.41-1a1.39,1.39,0,0,0,.61-.59.78.78,0,0,1,.5-.43c.26-.08.38-.19.38-.33s.22-.35.66-.71a5.88,5.88,0,0,0,1-.92q.3-.39.51-.39l.1-.11q0-.63.48-.63l.25-.15.05-.2.16-.11h.2l.13-.1a1.25,1.25,0,0,1,.59-1,12.84,12.84,0,0,0,2-2,11.06,11.06,0,0,0,1.63-2.09,8.52,8.52,0,0,1,.65-1.23,3.41,3.41,0,0,0,.52-1.45,1,1,0,0,0-.16-.21l-1.08.54c0-.06-.17-.13-.51-.23a2.1,2.1,0,0,0-.56.45c-.12.16-.21.23-.28.23l-.35-.05-1.12.13a5,5,0,0,0-2.25.61l-1,.3h-.23a1.3,1.3,0,0,0-.61.25l-.58-.05a2.93,2.93,0,0,1-1.2.43,1.64,1.64,0,0,1-.3-.05l-2.59.71a6.91,6.91,0,0,0-1.36,1l-.21.05c-.17,0-.36-.19-.59-.57a2,2,0,0,1-.35-1q0-2.52,4.31-2.92l1-.41h.05l.28.11h.11a1.26,1.26,0,0,0,.48-.19,6.37,6.37,0,0,1,1.47-.47l1-.28.33,0a1.18,1.18,0,0,0,.57-.2,2.36,2.36,0,0,1,1-.3,4.43,4.43,0,0,0,.9-.18l.4-.11a1.28,1.28,0,0,0,.42-.17,1.67,1.67,0,0,1,.83-.18A1.58,1.58,0,0,1,453,169.25Z" style="fill:#bebaba"></path><path d="M461.16,183.37l.4-.36h.16c.11,0,.29-.12.53-.38l.25-.1a2.16,2.16,0,0,1,.89-.88l.41-.31a1,1,0,0,1,.29-.18,2.26,2.26,0,0,0,.61-.49c.28-.28.5-.42.67-.42a1.47,1.47,0,0,1,.41.05,1.57,1.57,0,0,1,.61-.59,2.58,2.58,0,0,0,.73-.7l.33-.15a2.88,2.88,0,0,0,.72-.52A1.15,1.15,0,0,1,469,178a2.3,2.3,0,0,1,1.53.75,2.05,2.05,0,0,1,.8,1.43l-.43,2q-.43,2.17-1,2.28l-.1.53c-.24.17-.36.31-.36.41l.15.61c0,.08-.09.21-.27.38,0,0-.05.05-.05.15v1a.52.52,0,0,1-.36.45.48.48,0,0,0,.15.11,1,1,0,0,1,.69-.16l.4.05.56-.55a3,3,0,0,0,.49-.24,7.29,7.29,0,0,1,1.08-.5l3.31-2.53c.46-.46.81-.69,1-.69s.38.16.38.48a1.86,1.86,0,0,1-.21.93,4.37,4.37,0,0,0-.4.89,1.61,1.61,0,0,1-.41.72,1.84,1.84,0,0,0-.4.44,3,3,0,0,1-.82.7,7.47,7.47,0,0,0-1.14.92,5.55,5.55,0,0,1-.77.68l-1.09.78-.16.26a2.62,2.62,0,0,1-.47.21,3.15,3.15,0,0,0-.74.42l-.46.25a1,1,0,0,1-.49.13.9.9,0,0,0-.6.29c-.17.18-.3.27-.4.27l-.38,0-.51.15a1.76,1.76,0,0,1-1.05-.52,1.44,1.44,0,0,1-.62-1.1v-.16l.05-.35a2,2,0,0,0-.16-.52,3.52,3.52,0,0,1-.15-.47l.05-.35-.05-.16a2.38,2.38,0,0,1,.1-.86,1.56,1.56,0,0,0,.16-.49,3.71,3.71,0,0,1,.1-.52l.12-.64a.79.79,0,0,1,.26-.4c0-.14.1-.36.2-.69l.1-.45L467,184a.9.9,0,0,0,.24-.54,1.71,1.71,0,0,1,.26-.72,1.9,1.9,0,0,0,.23-.46.27.27,0,0,0-.3-.3,2.16,2.16,0,0,0-.64.4l-.45-.15s-.13.08-.28.25c0,.07-.08.12-.23.15a.8.8,0,0,0-.43.38l-.21,0-.33-.15h-.1c-.17,0-.27.19-.3.56a1.27,1.27,0,0,1-.74.53l-.55.16a.65.65,0,0,0-.41.45,1.39,1.39,0,0,1-.51.65,1.29,1.29,0,0,1-.5.29c-.48,0-.71-.26-.71-.79l.2-1.19Zm10.95-12.68-.15-1v-.16c0-.79.27-1.23.81-1.31.12,0,.47-.13,1.06-.33a1.72,1.72,0,0,1,.95.8,2.21,2.21,0,0,1,.5,1.22.87.87,0,0,1-.08.23,2.48,2.48,0,0,0-.1.67,1.19,1.19,0,0,1-.49.87,1.64,1.64,0,0,1-1,.36,1.55,1.55,0,0,1-.9-.49A1.59,1.59,0,0,1,472.11,170.69Z" style="fill:#bebaba"></path><path d="M480.36,184.81v-.25a3,3,0,0,1,.5-1.09,2.46,2.46,0,0,1,1.17-1.09s.05,0,.05,0l-.05-.4c.06-.07.23-.29.5-.66s.54-.54.79-.49a2.28,2.28,0,0,1,.71-.67,3,3,0,0,0,.78-.69l.94-.59a3.2,3.2,0,0,1,1.44-.66h.38a.94.94,0,0,1,.82-.5.93.93,0,0,1,.63.15.16.16,0,0,0,.1.05,1.83,1.83,0,0,0,.3-.2,1.13,1.13,0,0,1,.69-.21,9.84,9.84,0,0,1,1.14.41.86.86,0,0,1,.58-.31.88.88,0,0,1,.35.16,4.2,4.2,0,0,0,.52.26c.18.08.35.39.52.94a7.62,7.62,0,0,1,.26.93c0,.27-.23.58-.67,1a2.07,2.07,0,0,1-1.26.54c-.13,0-.3-.12-.5-.35a6.45,6.45,0,0,1-1.29-.38,3.41,3.41,0,0,0-1.09.38h-.05l-.23-.21-.2-.05h-.05a2.45,2.45,0,0,0-.2.36,2.83,2.83,0,0,1-.7.37,1.14,1.14,0,0,0-.47.27,1.92,1.92,0,0,1-.59.4,1.31,1.31,0,0,0-.62.56,3.31,3.31,0,0,1-.73.32h-.16a8.71,8.71,0,0,1-.93,1.35l-.66,1.09-.56.47c-.22.17-.33.33-.33.47a2.45,2.45,0,0,0,.05.25v.25c0,.11-.08.23-.24.37s-.24.25-.24.32l.05.56-.2.88c0,.53.38.79,1.14.79h.38l1.09-.18.89-.15.4-.08a1.76,1.76,0,0,0,.41-.28h.25l.23-.05c.06-.35.55-.65,1.44-.88a1.75,1.75,0,0,1,1-.67,3.77,3.77,0,0,0,1.45-.93h.38a1.71,1.71,0,0,0,.47-.29,3.7,3.7,0,0,1,.81-.47,1.42,1.42,0,0,0,.52-.31.82.82,0,0,1,.38-.22,1.92,1.92,0,0,1,1.09-.89l.1-.1q.4-.36.51-.36l.3.05c.17,0,.27-.1.32-.31s.31-.5.81-.86a2.57,2.57,0,0,1,.95-.55q.48,0,.48.51c0,.25-.15.39-.43.43a6,6,0,0,1,.28.73,1.05,1.05,0,0,1-.84,1.09.17.17,0,0,0-.1.15l-.05.46s0,0,0,0l-.1.11-.38,0-.11.16a6,6,0,0,0-1.29,1l-.5.53h-.08c-.17-.17-.3-.26-.41-.26s-.15.12-.25.36a4.65,4.65,0,0,1-1.24,1,2,2,0,0,0-.53.4l-.51.33h-.38a.76.76,0,0,0-.14.22,1.59,1.59,0,0,1-.44.42,2.55,2.55,0,0,0-.55.49,1,1,0,0,1-.47.32l-.45-.1a.89.89,0,0,1-.84.4,3.7,3.7,0,0,0-.44.39c-.2.2-.33.3-.4.3a1.68,1.68,0,0,1-.53-.31h-.05c-.17,0-.25.13-.25.38s-.16.39-.47.41a2.08,2.08,0,0,0-.88.25h-.05a1.29,1.29,0,0,1-.83-.21,2.15,2.15,0,0,0-.46-.32,8,8,0,0,1-.84.25.86.86,0,0,1-.58-.25l-1.09-.56a2.16,2.16,0,0,1-.35-.68l-.16-.21c-.54-.1-.9-.65-1.09-1.67l-.2-.61a.37.37,0,0,1,0-.23,2.61,2.61,0,0,1,.2-.77,10.18,10.18,0,0,0,.41-1.39A1.38,1.38,0,0,1,480.36,184.81Z" style="fill:#bebaba"></path></svg> 