<svg xmlns="http://www.w3.org/2000/svg" viewBox="0 0 362.83 230.54"><defs><style>.cls-1{fill:#231f20;}</style></defs><title>Asset 6</title><g id="Layer_2" data-name="Layer 2"><g id="Layer_1-2" data-name="Layer 1"><path id="_Compound_Path_" data-name="&lt;Compound Path&gt;" class="cls-1" d="M92.88,15.94a52.42,52.42,0,0,1,15.94,38.47A52.42,52.42,0,0,1,92.88,92.88a52.43,52.43,0,0,1-38.47,15.94A52.43,52.43,0,0,1,15.94,92.88,52.42,52.42,0,0,1,0,54.41,52.42,52.42,0,0,1,15.94,15.94,52.42,52.42,0,0,1,54.41,0,52.42,52.42,0,0,1,92.88,15.94ZM28.28,28.28A35.6,35.6,0,0,0,17.46,54.41,35.61,35.61,0,0,0,28.28,80.54,35.61,35.61,0,0,0,54.41,91.36,35.6,35.6,0,0,0,80.54,80.54,35.6,35.6,0,0,0,91.36,54.41,35.6,35.6,0,0,0,80.54,28.28,35.6,35.6,0,0,0,54.41,17.46,35.6,35.6,0,0,0,28.28,28.28Z"/><path id="_Compound_Path_2" data-name="&lt;Compound Path&gt;" class="cls-1" d="M189.56,3.8H207v105L141.09,42.52V105H123.63V0l65.93,66.31Z"/><path id="_Compound_Path_3" data-name="&lt;Compound Path&gt;" class="cls-1" d="M92.88,137.66a54.38,54.38,0,0,1,0,76.94,52.43,52.43,0,0,1-38.47,15.94A52.43,52.43,0,0,1,15.94,214.6a54.38,54.38,0,0,1,0-76.94,52.42,52.42,0,0,1,38.47-15.94A52.42,52.42,0,0,1,92.88,137.66ZM28.28,150a37,37,0,0,0,0,52.26,35.61,35.61,0,0,0,26.13,10.82,35.6,35.6,0,0,0,26.13-10.82,37,37,0,0,0,0-52.26,35.6,35.6,0,0,0-26.13-10.82A35.6,35.6,0,0,0,28.28,150Z"/><path id="_Compound_Path_4" data-name="&lt;Compound Path&gt;" class="cls-1" d="M141.09,143.1v24.3h34v17.46h-34v41.89H123.63V125.51h58.46V143.1Z"/><path id="_Compound_Path_5" data-name="&lt;Compound Path&gt;" class="cls-1" d="M214.28,143.1v24.3h34v17.46h-34v41.89H196.82V125.51h58.46V143.1Z"/><path id="_Path_" data-name="&lt;Path&gt;" class="cls-1" d="M309.63,71.64V50.15a16.68,16.68,0,0,0-7.17-13.71l-26.22-18V71.64H254.75A16.68,16.68,0,0,0,241,78.81L223,105h53.21v21.49a16.68,16.68,0,0,0,7.17,13.71l26.22,18V105h21.49a16.68,16.68,0,0,0,13.71-7.17l18-26.22Z"/></g></g></svg>